<svg xmlns="http://www.w3.org/2000/svg" width="380" height="226" viewBox="0 0 380 226" role="img" aria-labelledby="title desc">
  <title id="title">Codex tokens over time</title>
  <desc id="desc">Line graph of returned daily Codex tokens from Oct 6 to Oct 6, ending at 29.89B.</desc>
  <defs>
    <linearGradient id="line" x1="0" x2="1" y1="0" y2="0">
      <stop offset="0" stop-color="#c4b408"/>
      <stop offset=".55" stop-color="#f3eb91"/>
      <stop offset="1" stop-color="#f0e138"/>
    </linearGradient>
    <linearGradient id="area" x1="0" x2="0" y1="0" y2="1">
      <stop offset="0" stop-color="#f0e138" stop-opacity=".28"/>
      <stop offset="1" stop-color="#f0e138" stop-opacity="0"/>
    </linearGradient>
    <clipPath id="plot">
      <rect x="34" y="34" width="328" height="156"/>
    </clipPath>
  </defs>
  <rect width="380" height="226" rx="8" fill="#0d1117"/>
  <rect x=".5" y=".5" width="379" height="225" rx="8" fill="none" stroke="#30363d"/>
  <text x="34" y="22" fill="#e6edf3" font-family="-apple-system,BlinkMacSystemFont,Segoe UI,Inter,Arial,sans-serif" font-size="13" font-weight="650">returned daily history</text>
  <text x="362" y="22" text-anchor="end" fill="#8b949e" font-family="-apple-system,BlinkMacSystemFont,Segoe UI,Inter,Arial,sans-serif" font-size="11">29.89B</text>
  <g>
    <line x1="34" y1="34.0" x2="362" y2="34.0" stroke="#21262d" stroke-width="1"/>
    <line x1="34" y1="73.0" x2="362" y2="73.0" stroke="#21262d" stroke-width="1"/>
    <line x1="34" y1="112.0" x2="362" y2="112.0" stroke="#21262d" stroke-width="1"/>
    <line x1="34" y1="151.0" x2="362" y2="151.0" stroke="#21262d" stroke-width="1"/>
    <line x1="34" y1="190.0" x2="362" y2="190.0" stroke="#21262d" stroke-width="1"/>
    <line x1="34" y1="190" x2="362" y2="190" stroke="#30363d" stroke-width="1"/>
  </g>
  <g clip-path="url(#plot)">
    <path d="M 34.0 190.0 C 34.2 190.0, 35.0 189.9, 35.5 189.9 C 36.0 189.9, 36.5 189.9, 37.0 189.9 C 37.4 189.9, 37.9 189.9, 38.4 189.9 C 38.9 189.9, 39.4 189.8, 39.9 189.8 C 40.4 189.8, 40.9 189.8, 41.4 189.7 C 41.9 189.7, 42.4 189.7, 42.9 189.7 C 43.4 189.7, 43.8 189.7, 44.3 189.7 C 44.8 189.7, 45.3 189.7, 45.8 189.7 C 46.3 189.7, 46.8 189.7, 47.3 189.7 C 47.8 189.7, 48.3 189.7, 48.8 189.7 C 49.3 189.6, 49.8 189.5, 50.3 189.5 C 50.7 189.5, 51.2 189.5, 51.7 189.5 C 52.2 189.5, 52.7 189.4, 53.2 189.4 C 53.7 189.4, 54.2 189.4, 54.7 189.4 C 55.2 189.4, 55.7 189.3, 56.2 189.3 C 56.7 189.3, 57.1 189.3, 57.6 189.3 C 58.1 189.3, 58.6 189.3, 59.1 189.3 C 59.6 189.3, 60.1 189.3, 60.6 189.3 C 61.1 189.3, 61.6 189.2, 62.1 189.2 C 62.6 189.2, 63.1 189.2, 63.5 189.1 C 64.0 189.1, 64.5 189.1, 65.0 189.1 C 65.5 189.1, 66.0 189.0, 66.5 189.0 C 67.0 189.0, 67.5 189.0, 68.0 189.0 C 68.5 189.0, 69.0 189.0, 69.5 189.0 C 70.0 189.0, 70.4 189.0, 70.9 189.0 C 71.4 188.9, 71.9 188.9, 72.4 188.9 C 72.9 188.8, 73.4 188.7, 73.9 188.7 C 74.4 188.7, 74.9 188.6, 75.4 188.6 C 75.9 188.6, 76.4 188.6, 76.8 188.6 C 77.3 188.6, 77.8 188.6, 78.3 188.6 C 78.8 188.6, 79.3 188.6, 79.8 188.6 C 80.3 188.6, 80.8 188.6, 81.3 188.6 C 81.8 188.6, 82.3 188.6, 82.8 188.6 C 83.2 188.6, 83.7 188.6, 84.2 188.6 C 84.7 188.6, 85.2 188.6, 85.7 188.6 C 86.2 188.6, 86.7 188.5, 87.2 188.5 C 87.7 188.5, 88.2 188.5, 88.7 188.5 C 89.2 188.5, 89.7 188.5, 90.1 188.5 C 90.6 188.5, 91.1 188.5, 91.6 188.5 C 92.1 188.5, 92.6 188.5, 93.1 188.5 C 93.6 188.4, 94.1 188.4, 94.6 188.4 C 95.1 188.4, 95.6 188.4, 96.1 188.4 C 96.5 188.4, 97.0 188.4, 97.5 188.4 C 98.0 188.4, 98.5 188.3, 99.0 188.3 C 99.5 188.3, 100.0 188.3, 100.5 188.3 C 101.0 188.3, 101.5 188.3, 102.0 188.3 C 102.5 188.2, 102.9 188.2, 103.4 188.2 C 103.9 188.2, 104.4 188.2, 104.9 188.2 C 105.4 188.1, 105.9 188.1, 106.4 188.1 C 106.9 188.1, 107.4 188.1, 107.9 188.1 C 108.4 188.1, 108.9 188.1, 109.4 188.1 C 109.8 188.1, 110.3 188.1, 110.8 188.1 C 111.3 188.1, 111.8 188.0, 112.3 188.0 C 112.8 188.0, 113.3 188.0, 113.8 188.0 C 114.3 187.9, 114.8 187.9, 115.3 187.9 C 115.8 187.9, 116.2 187.8, 116.7 187.8 C 117.2 187.8, 117.7 187.8, 118.2 187.7 C 118.7 187.7, 119.2 187.8, 119.7 187.7 C 120.2 187.7, 120.7 187.7, 121.2 187.7 C 121.7 187.7, 122.2 187.7, 122.6 187.7 C 123.1 187.7, 123.6 187.7, 124.1 187.7 C 124.6 187.7, 125.1 187.6, 125.6 187.6 C 126.1 187.6, 126.6 187.6, 127.1 187.6 C 127.6 187.6, 128.1 187.6, 128.6 187.6 C 129.1 187.6, 129.5 187.6, 130.0 187.6 C 130.5 187.6, 131.0 187.6, 131.5 187.5 C 132.0 187.5, 132.5 187.5, 133.0 187.4 C 133.5 187.4, 134.0 187.4, 134.5 187.3 C 135.0 187.3, 135.5 187.1, 135.9 187.0 C 136.4 186.9, 136.9 186.8, 137.4 186.8 C 137.9 186.7, 138.4 186.8, 138.9 186.7 C 139.4 186.7, 139.9 186.6, 140.4 186.5 C 140.9 186.5, 141.4 186.4, 141.9 186.3 C 142.3 186.3, 142.8 186.2, 143.3 186.2 C 143.8 186.2, 144.3 186.1, 144.8 186.1 C 145.3 186.1, 145.8 186.1, 146.3 186.0 C 146.8 186.0, 147.3 185.9, 147.8 185.9 C 148.3 185.9, 148.8 185.9, 149.2 185.8 C 149.7 185.8, 150.2 185.8, 150.7 185.7 C 151.2 185.6, 151.7 185.3, 152.2 185.2 C 152.7 185.1, 153.2 185.2, 153.7 185.2 C 154.2 185.2, 154.7 185.2, 155.2 185.2 C 155.6 185.2, 156.1 185.2, 156.6 185.1 C 157.1 185.1, 157.6 185.1, 158.1 185.1 C 158.6 185.1, 159.1 185.5, 159.6 185.1 C 160.1 184.7, 160.6 183.6, 161.1 182.9 C 161.6 182.2, 162.0 181.2, 162.5 180.8 C 163.0 180.3, 163.5 180.4, 164.0 180.3 C 164.5 180.2, 165.0 180.3, 165.5 180.3 C 166.0 180.2, 166.5 180.2, 167.0 180.2 C 167.5 180.2, 168.0 180.2, 168.5 180.2 C 168.9 180.2, 169.4 180.2, 169.9 180.2 C 170.4 180.2, 170.9 180.2, 171.4 180.2 C 171.9 180.2, 172.4 180.1, 172.9 180.1 C 173.4 180.1, 173.9 180.1, 174.4 180.1 C 174.9 180.1, 175.3 180.1, 175.8 180.1 C 176.3 180.1, 176.8 180.0, 177.3 180.0 C 177.8 180.0, 178.3 180.0, 178.8 180.0 C 179.3 180.0, 179.8 180.2, 180.3 180.0 C 180.8 179.8, 181.3 179.0, 181.7 178.8 C 182.2 178.5, 182.7 178.5, 183.2 178.5 C 183.7 178.4, 184.2 178.4, 184.7 178.4 C 185.2 178.4, 185.7 178.4, 186.2 178.4 C 186.7 178.4, 187.2 178.4, 187.7 178.4 C 188.2 178.4, 188.6 178.4, 189.1 178.4 C 189.6 178.4, 190.1 178.4, 190.6 178.3 C 191.1 178.3, 191.6 178.0, 192.1 177.9 C 192.6 177.8, 193.1 177.7, 193.6 177.7 C 194.1 177.6, 194.6 177.4, 195.0 177.4 C 195.5 177.3, 196.0 177.3, 196.5 177.3 C 197.0 177.3, 197.5 177.3, 198.0 177.3 C 198.5 177.3, 199.0 177.2, 199.5 177.2 C 200.0 177.1, 200.5 177.2, 201.0 177.1 C 201.4 177.1, 201.9 177.0, 202.4 176.9 C 202.9 176.8, 203.4 176.6, 203.9 176.4 C 204.4 176.2, 204.9 175.7, 205.4 175.5 C 205.9 175.3, 206.4 175.2, 206.9 175.1 C 207.4 175.0, 207.8 175.1, 208.3 175.0 C 208.8 174.9, 209.3 174.6, 209.8 174.5 C 210.3 174.4, 210.8 174.4, 211.3 174.4 C 211.8 174.4, 212.3 174.4, 212.8 174.4 C 213.3 174.3, 213.8 174.2, 214.3 174.1 C 214.7 174.0, 215.2 173.7, 215.7 173.6 C 216.2 173.4, 216.7 173.6, 217.2 173.4 C 217.7 173.3, 218.2 173.0, 218.7 172.9 C 219.2 172.7, 219.7 172.6, 220.2 172.5 C 220.7 172.4, 221.1 172.4, 221.6 172.4 C 222.1 172.4, 222.6 172.4, 223.1 172.3 C 223.6 172.2, 224.1 172.1, 224.6 172.0 C 225.1 171.9, 225.6 171.7, 226.1 171.6 C 226.6 171.5, 227.1 171.4, 227.5 171.3 C 228.0 171.2, 228.5 171.3, 229.0 171.1 C 229.5 170.9, 230.0 170.5, 230.5 170.1 C 231.0 169.8, 231.5 169.3, 232.0 168.9 C 232.5 168.6, 233.0 168.4, 233.5 168.1 C 234.0 167.8, 234.4 167.4, 234.9 167.1 C 235.4 166.7, 235.9 166.1, 236.4 165.8 C 236.9 165.5, 237.4 165.4, 237.9 165.0 C 238.4 164.7, 238.9 164.3, 239.4 163.6 C 239.9 163.0, 240.4 162.3, 240.8 161.4 C 241.3 160.5, 241.8 159.3, 242.3 158.4 C 242.8 157.6, 243.3 157.7, 243.8 156.5 C 244.3 155.3, 244.8 152.6, 245.3 151.4 C 245.8 150.2, 246.3 149.6, 246.8 149.2 C 247.2 148.8, 247.7 148.9, 248.2 148.9 C 248.7 148.8, 249.2 148.8, 249.7 148.8 C 250.2 148.8, 250.7 148.7, 251.2 148.7 C 251.7 148.6, 252.2 148.6, 252.7 148.5 C 253.2 148.4, 253.7 148.2, 254.1 148.1 C 254.6 148.0, 255.1 148.2, 255.6 148.1 C 256.1 147.9, 256.6 147.9, 257.1 147.4 C 257.6 146.9, 258.1 145.6, 258.6 144.9 C 259.1 144.3, 259.6 143.9, 260.1 143.3 C 260.5 142.6, 261.0 141.7, 261.5 141.0 C 262.0 140.2, 262.5 139.4, 263.0 138.6 C 263.5 137.8, 264.0 137.0, 264.5 136.3 C 265.0 135.7, 265.5 135.1, 266.0 134.6 C 266.5 134.2, 266.9 133.9, 267.4 133.5 C 267.9 133.2, 268.4 132.8, 268.9 132.5 C 269.4 132.2, 269.9 132.2, 270.4 131.9 C 270.9 131.5, 271.4 130.7, 271.9 130.4 C 272.4 130.0, 272.9 130.0, 273.4 129.8 C 273.8 129.6, 274.3 129.6, 274.8 129.3 C 275.3 129.0, 275.8 129.0, 276.3 127.9 C 276.8 126.8, 277.3 124.4, 277.8 122.9 C 278.3 121.4, 278.8 120.3, 279.3 119.2 C 279.8 118.0, 280.2 116.7, 280.7 116.0 C 281.2 115.4, 281.7 115.7, 282.2 115.4 C 282.7 115.1, 283.2 114.8, 283.7 114.4 C 284.2 114.1, 284.7 113.7, 285.2 113.5 C 285.7 113.2, 286.2 113.1, 286.6 112.9 C 287.1 112.7, 287.6 113.1, 288.1 112.2 C 288.6 111.4, 289.1 108.7, 289.6 107.6 C 290.1 106.6, 290.6 107.1, 291.1 106.1 C 291.6 105.1, 292.1 103.1, 292.6 101.7 C 293.1 100.2, 293.5 98.3, 294.0 97.5 C 294.5 96.6, 295.0 97.0, 295.5 96.7 C 296.0 96.4, 296.5 96.0, 297.0 95.5 C 297.5 95.0, 298.0 94.6, 298.5 93.9 C 299.0 93.1, 299.5 91.4, 299.9 90.8 C 300.4 90.2, 300.9 90.6, 301.4 90.4 C 301.9 90.2, 302.4 89.8, 302.9 89.5 C 303.4 89.2, 303.9 89.0, 304.4 88.8 C 304.9 88.6, 305.4 88.5, 305.9 88.4 C 306.3 88.3, 306.8 88.2, 307.3 88.1 C 307.8 88.0, 308.3 88.0, 308.8 87.6 C 309.3 87.3, 309.8 86.5, 310.3 85.9 C 310.8 85.4, 311.3 84.7, 311.8 84.2 C 312.3 83.7, 312.8 83.7, 313.2 83.0 C 313.7 82.4, 314.2 80.9, 314.7 80.3 C 315.2 79.7, 315.7 79.7, 316.2 79.5 C 316.7 79.2, 317.2 78.9, 317.7 78.5 C 318.2 78.1, 318.7 77.5, 319.2 76.9 C 319.6 76.4, 320.1 75.6, 320.6 75.2 C 321.1 74.7, 321.6 74.6, 322.1 74.1 C 322.6 73.6, 323.1 72.6, 323.6 72.0 C 324.1 71.3, 324.6 70.6, 325.1 70.2 C 325.6 69.7, 326.0 69.6, 326.5 69.3 C 327.0 68.9, 327.5 68.6, 328.0 68.2 C 328.5 67.8, 329.0 67.5, 329.5 66.9 C 330.0 66.4, 330.5 65.7, 331.0 65.0 C 331.5 64.3, 332.0 63.4, 332.5 62.6 C 332.9 61.8, 333.4 60.8, 333.9 60.2 C 334.4 59.7, 334.9 59.8, 335.4 59.5 C 335.9 59.2, 336.4 58.6, 336.9 58.3 C 337.4 57.9, 337.9 57.8, 338.4 57.5 C 338.9 57.2, 339.3 56.8, 339.8 56.4 C 340.3 56.0, 340.8 55.4, 341.3 55.0 C 341.8 54.6, 342.3 54.1, 342.8 53.7 C 343.3 53.4, 343.8 53.2, 344.3 52.9 C 344.8 52.6, 345.3 52.6, 345.7 51.9 C 346.2 51.2, 346.7 49.8, 347.2 48.7 C 347.7 47.5, 348.2 45.8, 348.7 45.0 C 349.2 44.1, 349.7 44.0, 350.2 43.6 C 350.7 43.2, 351.2 42.9, 351.7 42.6 C 352.2 42.3, 352.6 42.0, 353.1 41.6 C 353.6 41.3, 354.1 40.8, 354.6 40.4 C 355.1 40.1, 355.6 39.8, 356.1 39.4 C 356.6 38.9, 357.1 38.2, 357.6 37.7 C 358.1 37.2, 358.6 36.8, 359.0 36.3 C 359.5 35.8, 360.0 35.1, 360.5 34.7 C 361.0 34.4, 361.8 34.1, 362.0 34.0 L 362.0 190.0 L 34.0 190.0 Z" fill="url(#area)"/>
    <path d="M 34.0 190.0 C 34.2 190.0, 35.0 189.9, 35.5 189.9 C 36.0 189.9, 36.5 189.9, 37.0 189.9 C 37.4 189.9, 37.9 189.9, 38.4 189.9 C 38.9 189.9, 39.4 189.8, 39.9 189.8 C 40.4 189.8, 40.9 189.8, 41.4 189.7 C 41.9 189.7, 42.4 189.7, 42.9 189.7 C 43.4 189.7, 43.8 189.7, 44.3 189.7 C 44.8 189.7, 45.3 189.7, 45.8 189.7 C 46.3 189.7, 46.8 189.7, 47.3 189.7 C 47.8 189.7, 48.3 189.7, 48.8 189.7 C 49.3 189.6, 49.8 189.5, 50.3 189.5 C 50.7 189.5, 51.2 189.5, 51.7 189.5 C 52.2 189.5, 52.7 189.4, 53.2 189.4 C 53.7 189.4, 54.2 189.4, 54.7 189.4 C 55.2 189.4, 55.7 189.3, 56.2 189.3 C 56.7 189.3, 57.1 189.3, 57.6 189.3 C 58.1 189.3, 58.6 189.3, 59.1 189.3 C 59.6 189.3, 60.1 189.3, 60.6 189.3 C 61.1 189.3, 61.6 189.2, 62.1 189.2 C 62.6 189.2, 63.1 189.2, 63.5 189.1 C 64.0 189.1, 64.5 189.1, 65.0 189.1 C 65.5 189.1, 66.0 189.0, 66.5 189.0 C 67.0 189.0, 67.5 189.0, 68.0 189.0 C 68.5 189.0, 69.0 189.0, 69.5 189.0 C 70.0 189.0, 70.4 189.0, 70.9 189.0 C 71.4 188.9, 71.9 188.9, 72.4 188.9 C 72.9 188.8, 73.4 188.7, 73.9 188.7 C 74.4 188.7, 74.9 188.6, 75.4 188.6 C 75.9 188.6, 76.4 188.6, 76.8 188.6 C 77.3 188.6, 77.8 188.6, 78.3 188.6 C 78.8 188.6, 79.3 188.6, 79.8 188.6 C 80.3 188.6, 80.8 188.6, 81.3 188.6 C 81.8 188.6, 82.3 188.6, 82.8 188.6 C 83.2 188.6, 83.7 188.6, 84.2 188.6 C 84.7 188.6, 85.2 188.6, 85.7 188.6 C 86.2 188.6, 86.7 188.5, 87.2 188.5 C 87.7 188.5, 88.2 188.5, 88.7 188.5 C 89.2 188.5, 89.7 188.5, 90.1 188.5 C 90.6 188.5, 91.1 188.5, 91.6 188.5 C 92.1 188.5, 92.6 188.5, 93.1 188.5 C 93.6 188.4, 94.1 188.4, 94.6 188.4 C 95.1 188.4, 95.6 188.4, 96.1 188.4 C 96.5 188.4, 97.0 188.4, 97.5 188.4 C 98.0 188.4, 98.5 188.3, 99.0 188.3 C 99.5 188.3, 100.0 188.3, 100.5 188.3 C 101.0 188.3, 101.5 188.3, 102.0 188.3 C 102.5 188.2, 102.9 188.2, 103.4 188.2 C 103.9 188.2, 104.4 188.2, 104.9 188.2 C 105.4 188.1, 105.9 188.1, 106.4 188.1 C 106.9 188.1, 107.4 188.1, 107.9 188.1 C 108.4 188.1, 108.9 188.1, 109.4 188.1 C 109.8 188.1, 110.3 188.1, 110.8 188.1 C 111.3 188.1, 111.8 188.0, 112.3 188.0 C 112.8 188.0, 113.3 188.0, 113.8 188.0 C 114.3 187.9, 114.8 187.9, 115.3 187.9 C 115.8 187.9, 116.2 187.8, 116.7 187.8 C 117.2 187.8, 117.7 187.8, 118.2 187.7 C 118.7 187.7, 119.2 187.8, 119.7 187.7 C 120.2 187.7, 120.7 187.7, 121.2 187.7 C 121.7 187.7, 122.2 187.7, 122.6 187.7 C 123.1 187.7, 123.6 187.7, 124.1 187.7 C 124.6 187.7, 125.1 187.6, 125.6 187.6 C 126.1 187.6, 126.6 187.6, 127.1 187.6 C 127.6 187.6, 128.1 187.6, 128.6 187.6 C 129.1 187.6, 129.5 187.6, 130.0 187.6 C 130.5 187.6, 131.0 187.6, 131.5 187.5 C 132.0 187.5, 132.5 187.5, 133.0 187.4 C 133.5 187.4, 134.0 187.4, 134.5 187.3 C 135.0 187.3, 135.5 187.1, 135.9 187.0 C 136.4 186.9, 136.9 186.8, 137.4 186.8 C 137.9 186.7, 138.4 186.8, 138.9 186.7 C 139.4 186.7, 139.9 186.6, 140.4 186.5 C 140.9 186.5, 141.4 186.4, 141.9 186.3 C 142.3 186.3, 142.8 186.2, 143.3 186.2 C 143.8 186.2, 144.3 186.1, 144.8 186.1 C 145.3 186.1, 145.8 186.1, 146.3 186.0 C 146.8 186.0, 147.3 185.9, 147.8 185.9 C 148.3 185.9, 148.8 185.9, 149.2 185.8 C 149.7 185.8, 150.2 185.8, 150.7 185.7 C 151.2 185.6, 151.7 185.3, 152.2 185.2 C 152.7 185.1, 153.2 185.2, 153.7 185.2 C 154.2 185.2, 154.7 185.2, 155.2 185.2 C 155.6 185.2, 156.1 185.2, 156.6 185.1 C 157.1 185.1, 157.6 185.1, 158.1 185.1 C 158.6 185.1, 159.1 185.5, 159.6 185.1 C 160.1 184.7, 160.6 183.6, 161.1 182.9 C 161.6 182.2, 162.0 181.2, 162.5 180.8 C 163.0 180.3, 163.5 180.4, 164.0 180.3 C 164.5 180.2, 165.0 180.3, 165.5 180.3 C 166.0 180.2, 166.5 180.2, 167.0 180.2 C 167.5 180.2, 168.0 180.2, 168.5 180.2 C 168.9 180.2, 169.4 180.2, 169.9 180.2 C 170.4 180.2, 170.9 180.2, 171.4 180.2 C 171.9 180.2, 172.4 180.1, 172.9 180.1 C 173.4 180.1, 173.9 180.1, 174.4 180.1 C 174.9 180.1, 175.3 180.1, 175.8 180.1 C 176.3 180.1, 176.8 180.0, 177.3 180.0 C 177.8 180.0, 178.3 180.0, 178.8 180.0 C 179.3 180.0, 179.8 180.2, 180.3 180.0 C 180.8 179.8, 181.3 179.0, 181.7 178.8 C 182.2 178.5, 182.7 178.5, 183.2 178.5 C 183.7 178.4, 184.2 178.4, 184.7 178.4 C 185.2 178.4, 185.7 178.4, 186.2 178.4 C 186.7 178.4, 187.2 178.4, 187.7 178.4 C 188.2 178.4, 188.6 178.4, 189.1 178.4 C 189.6 178.4, 190.1 178.4, 190.6 178.3 C 191.1 178.3, 191.6 178.0, 192.1 177.9 C 192.6 177.8, 193.1 177.7, 193.6 177.7 C 194.1 177.6, 194.6 177.4, 195.0 177.4 C 195.5 177.3, 196.0 177.3, 196.5 177.3 C 197.0 177.3, 197.5 177.3, 198.0 177.3 C 198.5 177.3, 199.0 177.2, 199.5 177.2 C 200.0 177.1, 200.5 177.2, 201.0 177.1 C 201.4 177.1, 201.9 177.0, 202.4 176.9 C 202.9 176.8, 203.4 176.6, 203.9 176.4 C 204.4 176.2, 204.9 175.7, 205.4 175.5 C 205.9 175.3, 206.4 175.2, 206.9 175.1 C 207.4 175.0, 207.8 175.1, 208.3 175.0 C 208.8 174.9, 209.3 174.6, 209.8 174.5 C 210.3 174.4, 210.8 174.4, 211.3 174.4 C 211.8 174.4, 212.3 174.4, 212.8 174.4 C 213.3 174.3, 213.8 174.2, 214.3 174.1 C 214.7 174.0, 215.2 173.7, 215.7 173.6 C 216.2 173.4, 216.7 173.6, 217.2 173.4 C 217.7 173.3, 218.2 173.0, 218.7 172.9 C 219.2 172.7, 219.7 172.6, 220.2 172.5 C 220.7 172.4, 221.1 172.4, 221.6 172.4 C 222.1 172.4, 222.6 172.4, 223.1 172.3 C 223.6 172.2, 224.1 172.1, 224.6 172.0 C 225.1 171.9, 225.6 171.7, 226.1 171.6 C 226.6 171.5, 227.1 171.4, 227.5 171.3 C 228.0 171.2, 228.5 171.3, 229.0 171.1 C 229.5 170.9, 230.0 170.5, 230.5 170.1 C 231.0 169.8, 231.5 169.3, 232.0 168.9 C 232.5 168.6, 233.0 168.4, 233.5 168.1 C 234.0 167.8, 234.4 167.4, 234.9 167.1 C 235.4 166.7, 235.9 166.1, 236.4 165.8 C 236.9 165.5, 237.4 165.4, 237.9 165.0 C 238.4 164.7, 238.9 164.3, 239.4 163.6 C 239.9 163.0, 240.4 162.3, 240.8 161.4 C 241.3 160.5, 241.8 159.3, 242.3 158.4 C 242.8 157.6, 243.3 157.7, 243.8 156.5 C 244.3 155.3, 244.8 152.6, 245.3 151.4 C 245.8 150.2, 246.3 149.6, 246.8 149.2 C 247.2 148.8, 247.7 148.9, 248.2 148.9 C 248.7 148.8, 249.2 148.8, 249.7 148.8 C 250.2 148.8, 250.7 148.7, 251.2 148.7 C 251.7 148.6, 252.2 148.6, 252.7 148.5 C 253.2 148.4, 253.7 148.2, 254.1 148.1 C 254.6 148.0, 255.1 148.2, 255.6 148.1 C 256.1 147.9, 256.6 147.9, 257.1 147.4 C 257.6 146.9, 258.1 145.6, 258.6 144.9 C 259.1 144.3, 259.6 143.9, 260.1 143.3 C 260.5 142.6, 261.0 141.7, 261.5 141.0 C 262.0 140.2, 262.5 139.4, 263.0 138.6 C 263.5 137.8, 264.0 137.0, 264.5 136.3 C 265.0 135.7, 265.5 135.1, 266.0 134.6 C 266.5 134.2, 266.9 133.9, 267.4 133.5 C 267.9 133.2, 268.4 132.8, 268.9 132.5 C 269.4 132.2, 269.9 132.2, 270.4 131.9 C 270.9 131.5, 271.4 130.7, 271.9 130.4 C 272.4 130.0, 272.9 130.0, 273.4 129.8 C 273.8 129.6, 274.3 129.6, 274.8 129.3 C 275.3 129.0, 275.8 129.0, 276.3 127.9 C 276.8 126.8, 277.3 124.4, 277.8 122.9 C 278.3 121.4, 278.8 120.3, 279.3 119.2 C 279.8 118.0, 280.2 116.7, 280.7 116.0 C 281.2 115.4, 281.7 115.7, 282.2 115.4 C 282.7 115.1, 283.2 114.8, 283.7 114.4 C 284.2 114.1, 284.7 113.7, 285.2 113.5 C 285.7 113.2, 286.2 113.1, 286.6 112.9 C 287.1 112.7, 287.6 113.1, 288.1 112.2 C 288.6 111.4, 289.1 108.7, 289.6 107.6 C 290.1 106.6, 290.6 107.1, 291.1 106.1 C 291.6 105.1, 292.1 103.1, 292.6 101.7 C 293.1 100.2, 293.5 98.3, 294.0 97.5 C 294.5 96.6, 295.0 97.0, 295.5 96.7 C 296.0 96.4, 296.5 96.0, 297.0 95.5 C 297.5 95.0, 298.0 94.6, 298.5 93.9 C 299.0 93.1, 299.5 91.4, 299.9 90.8 C 300.4 90.2, 300.9 90.6, 301.4 90.4 C 301.9 90.2, 302.4 89.8, 302.9 89.5 C 303.4 89.2, 303.9 89.0, 304.4 88.8 C 304.9 88.6, 305.4 88.5, 305.9 88.4 C 306.3 88.3, 306.8 88.2, 307.3 88.1 C 307.8 88.0, 308.3 88.0, 308.8 87.6 C 309.3 87.3, 309.8 86.5, 310.3 85.9 C 310.8 85.4, 311.3 84.7, 311.8 84.2 C 312.3 83.7, 312.8 83.7, 313.2 83.0 C 313.7 82.4, 314.2 80.9, 314.7 80.3 C 315.2 79.7, 315.7 79.7, 316.2 79.5 C 316.7 79.2, 317.2 78.9, 317.7 78.5 C 318.2 78.1, 318.7 77.5, 319.2 76.9 C 319.6 76.4, 320.1 75.6, 320.6 75.2 C 321.1 74.7, 321.6 74.6, 322.1 74.1 C 322.6 73.6, 323.1 72.6, 323.6 72.0 C 324.1 71.3, 324.6 70.6, 325.1 70.2 C 325.6 69.7, 326.0 69.6, 326.5 69.3 C 327.0 68.9, 327.5 68.6, 328.0 68.2 C 328.5 67.8, 329.0 67.5, 329.5 66.9 C 330.0 66.4, 330.5 65.7, 331.0 65.0 C 331.5 64.3, 332.0 63.4, 332.5 62.6 C 332.9 61.8, 333.4 60.8, 333.9 60.2 C 334.4 59.7, 334.9 59.8, 335.4 59.5 C 335.9 59.2, 336.4 58.6, 336.9 58.3 C 337.4 57.9, 337.9 57.8, 338.4 57.5 C 338.9 57.2, 339.3 56.8, 339.8 56.4 C 340.3 56.0, 340.8 55.4, 341.3 55.0 C 341.8 54.6, 342.3 54.1, 342.8 53.7 C 343.3 53.4, 343.8 53.2, 344.3 52.9 C 344.8 52.6, 345.3 52.6, 345.7 51.9 C 346.2 51.2, 346.7 49.8, 347.2 48.7 C 347.7 47.5, 348.2 45.8, 348.7 45.0 C 349.2 44.1, 349.7 44.0, 350.2 43.6 C 350.7 43.2, 351.2 42.9, 351.7 42.6 C 352.2 42.3, 352.6 42.0, 353.1 41.6 C 353.6 41.3, 354.1 40.8, 354.6 40.4 C 355.1 40.1, 355.6 39.8, 356.1 39.4 C 356.6 38.9, 357.1 38.2, 357.6 37.7 C 358.1 37.2, 358.6 36.8, 359.0 36.3 C 359.5 35.8, 360.0 35.1, 360.5 34.7 C 361.0 34.4, 361.8 34.1, 362.0 34.0" fill="none" stroke="url(#line)" stroke-width="2.2" stroke-linecap="round" stroke-linejoin="round"/>
    <circle cx="34.0" cy="190.0" r="2.5" fill="#c4b408"/>
    <circle cx="362.0" cy="34.0" r="2.8" fill="#f3eb91"/>
  </g>
  <text x="34" y="212" fill="#8b949e" font-family="-apple-system,BlinkMacSystemFont,Segoe UI,Inter,Arial,sans-serif" font-size="11">Oct 6</text>
  <text x="362" y="212" text-anchor="end" fill="#8b949e" font-family="-apple-system,BlinkMacSystemFont,Segoe UI,Inter,Arial,sans-serif" font-size="11">Oct 6</text>
</svg>
