<svg xmlns="http://www.w3.org/2000/svg" width="380" height="226" viewBox="0 0 380 226" role="img" aria-labelledby="title desc">
  <title id="title">Codex tokens over time</title>
  <desc id="desc">Line graph of cumulative Codex tokens from Jan 6 to Jun 29, ending at 3.19B.</desc>
  <defs>
    <linearGradient id="line" x1="0" x2="1" y1="0" y2="0">
      <stop offset="0" stop-color="#a8b007"/>
      <stop offset=".55" stop-color="#ebf17e"/>
      <stop offset="1" stop-color="#e4ef25"/>
    </linearGradient>
    <linearGradient id="area" x1="0" x2="0" y1="0" y2="1">
      <stop offset="0" stop-color="#e4ef25" stop-opacity=".28"/>
      <stop offset="1" stop-color="#e4ef25" stop-opacity="0"/>
    </linearGradient>
    <clipPath id="plot">
      <rect x="34" y="34" width="328" height="156"/>
    </clipPath>
  </defs>
  <rect width="380" height="226" rx="8" fill="#0d1117"/>
  <rect x=".5" y=".5" width="379" height="225" rx="8" fill="none" stroke="#30363d"/>
  <text x="34" y="22" fill="#e6edf3" font-family="-apple-system,BlinkMacSystemFont,Segoe UI,Inter,Arial,sans-serif" font-size="13" font-weight="650">tokens over time</text>
  <text x="362" y="22" text-anchor="end" fill="#8b949e" font-family="-apple-system,BlinkMacSystemFont,Segoe UI,Inter,Arial,sans-serif" font-size="11">3.19B</text>
  <g>
    <line x1="34" y1="34.0" x2="362" y2="34.0" stroke="#21262d" stroke-width="1"/>
    <line x1="34" y1="73.0" x2="362" y2="73.0" stroke="#21262d" stroke-width="1"/>
    <line x1="34" y1="112.0" x2="362" y2="112.0" stroke="#21262d" stroke-width="1"/>
    <line x1="34" y1="151.0" x2="362" y2="151.0" stroke="#21262d" stroke-width="1"/>
    <line x1="34" y1="190.0" x2="362" y2="190.0" stroke="#21262d" stroke-width="1"/>
    <line x1="34" y1="190" x2="362" y2="190" stroke="#30363d" stroke-width="1"/>
  </g>
  <g clip-path="url(#plot)">
    <path d="M 34.0 189.8 C 34.6 189.8, 36.3 190.0, 37.4 189.8 C 38.6 189.5, 39.7 188.7, 40.8 188.3 C 42.0 188.0, 43.1 187.9, 44.3 187.8 C 45.4 187.7, 46.5 187.6, 47.7 187.5 C 48.8 187.5, 49.9 187.5, 51.1 187.5 C 52.2 187.5, 53.4 187.5, 54.5 187.5 C 55.6 187.5, 56.8 187.5, 57.9 187.5 C 59.1 187.5, 60.2 187.6, 61.3 187.5 C 62.5 187.4, 63.6 187.0, 64.8 186.9 C 65.9 186.8, 67.0 186.8, 68.2 186.7 C 69.3 186.6, 70.4 186.3, 71.6 186.3 C 72.7 186.2, 73.9 186.3, 75.0 186.2 C 76.1 186.2, 77.3 186.0, 78.4 186.0 C 79.6 186.0, 80.7 186.0, 81.8 186.0 C 83.0 185.9, 84.1 185.8, 85.3 185.7 C 86.4 185.7, 87.5 185.5, 88.7 185.4 C 89.8 185.4, 90.9 185.4, 92.1 185.2 C 93.2 185.1, 94.4 184.7, 95.5 184.5 C 96.6 184.4, 97.8 184.4, 98.9 184.4 C 100.1 184.3, 101.2 184.2, 102.3 184.1 C 103.5 183.9, 104.6 183.6, 105.8 183.4 C 106.9 183.3, 108.0 183.2, 109.2 183.1 C 110.3 183.1, 111.4 183.1, 112.6 183.1 C 113.7 183.1, 114.9 183.1, 116.0 183.1 C 117.1 183.1, 118.3 183.1, 119.4 183.1 C 120.6 183.0, 121.7 182.7, 122.8 182.6 C 124.0 182.5, 125.1 182.6, 126.3 182.6 C 127.4 182.5, 128.5 182.5, 129.7 182.4 C 130.8 182.4, 131.9 182.4, 133.1 182.3 C 134.2 182.2, 135.4 182.0, 136.5 181.8 C 137.6 181.6, 138.8 181.3, 139.9 181.1 C 141.1 180.9, 142.2 180.9, 143.3 180.7 C 144.5 180.5, 145.6 180.4, 146.8 179.9 C 147.9 179.3, 149.0 177.8, 150.2 177.3 C 151.3 176.9, 152.4 177.2, 153.6 177.2 C 154.7 177.1, 155.9 177.3, 157.0 176.9 C 158.1 176.5, 159.3 175.2, 160.4 174.7 C 161.6 174.3, 162.7 174.6, 163.8 174.3 C 165.0 174.0, 166.1 173.3, 167.3 173.1 C 168.4 172.9, 169.5 173.1, 170.7 173.1 C 171.8 173.0, 172.9 173.0, 174.1 172.9 C 175.2 172.8, 176.4 172.7, 177.5 172.5 C 178.6 172.3, 179.8 172.1, 180.9 171.7 C 182.1 171.4, 183.2 170.7, 184.3 170.4 C 185.5 170.2, 186.6 170.6, 187.8 170.2 C 188.9 169.7, 190.0 168.8, 191.2 167.7 C 192.3 166.5, 193.4 164.1, 194.6 163.2 C 195.7 162.4, 196.9 162.8, 198.0 162.7 C 199.1 162.6, 200.3 162.5, 201.4 162.4 C 202.6 162.3, 203.7 162.9, 204.8 162.3 C 206.0 161.6, 207.1 159.5, 208.3 158.6 C 209.4 157.7, 210.5 157.5, 211.7 156.9 C 212.8 156.4, 213.9 155.6, 215.1 155.3 C 216.2 154.9, 217.4 155.1, 218.5 154.7 C 219.6 154.3, 220.8 153.3, 221.9 152.9 C 223.1 152.4, 224.2 152.4, 225.3 152.0 C 226.5 151.5, 227.6 150.7, 228.8 150.2 C 229.9 149.8, 231.0 150.5, 232.2 149.5 C 233.3 148.5, 234.4 145.2, 235.6 144.3 C 236.7 143.5, 237.9 144.3, 239.0 144.2 C 240.1 144.2, 241.3 144.2, 242.4 144.1 C 243.6 144.1, 244.7 143.9, 245.8 143.9 C 247.0 143.8, 248.1 143.9, 249.3 143.7 C 250.4 143.5, 251.5 143.3, 252.7 142.5 C 253.8 141.7, 254.9 144.0, 256.1 138.9 C 257.2 133.9, 258.4 119.3, 259.5 112.3 C 260.6 105.4, 261.8 99.8, 262.9 97.3 C 264.1 94.7, 265.2 97.2, 266.3 97.1 C 267.5 97.0, 268.6 96.8, 269.8 96.7 C 270.9 96.6, 272.0 96.7, 273.2 96.6 C 274.3 96.6, 275.4 96.4, 276.6 96.3 C 277.7 96.2, 278.9 96.2, 280.0 96.1 C 281.1 96.0, 282.3 95.9, 283.4 95.7 C 284.6 95.6, 285.7 97.2, 286.8 95.3 C 288.0 93.4, 289.1 86.6, 290.3 84.4 C 291.4 82.1, 292.5 82.2, 293.7 81.6 C 294.8 81.1, 295.9 81.7, 297.1 81.1 C 298.2 80.5, 299.4 78.7, 300.5 78.0 C 301.6 77.3, 302.8 77.3, 303.9 76.7 C 305.1 76.2, 306.2 75.2, 307.3 74.6 C 308.5 74.0, 309.6 73.5, 310.8 73.2 C 311.9 72.9, 313.0 73.0, 314.2 73.0 C 315.3 72.9, 316.4 73.1, 317.6 72.9 C 318.7 72.8, 319.9 72.3, 321.0 72.0 C 322.1 71.7, 323.3 72.2, 324.4 71.0 C 325.6 69.8, 326.7 66.3, 327.8 64.7 C 329.0 63.1, 330.1 63.1, 331.3 61.4 C 332.4 59.7, 333.5 56.1, 334.7 54.7 C 335.8 53.3, 336.9 53.4, 338.1 52.8 C 339.2 52.2, 340.4 52.2, 341.5 50.9 C 342.6 49.7, 343.8 46.3, 344.9 45.3 C 346.1 44.3, 347.2 45.2, 348.3 44.8 C 349.5 44.5, 350.6 44.0, 351.8 43.2 C 352.9 42.4, 354.0 40.9, 355.2 39.9 C 356.3 38.9, 357.4 38.0, 358.6 37.0 C 359.7 36.1, 361.4 34.5, 362.0 34.0 L 362.0 190.0 L 34.0 190.0 Z" fill="url(#area)"/>
    <path d="M 34.0 189.8 C 34.6 189.8, 36.3 190.0, 37.4 189.8 C 38.6 189.5, 39.7 188.7, 40.8 188.3 C 42.0 188.0, 43.1 187.9, 44.3 187.8 C 45.4 187.7, 46.5 187.6, 47.7 187.5 C 48.8 187.5, 49.9 187.5, 51.1 187.5 C 52.2 187.5, 53.4 187.5, 54.5 187.5 C 55.6 187.5, 56.8 187.5, 57.9 187.5 C 59.1 187.5, 60.2 187.6, 61.3 187.5 C 62.5 187.4, 63.6 187.0, 64.8 186.9 C 65.9 186.8, 67.0 186.8, 68.2 186.7 C 69.3 186.6, 70.4 186.3, 71.6 186.3 C 72.7 186.2, 73.9 186.3, 75.0 186.2 C 76.1 186.2, 77.3 186.0, 78.4 186.0 C 79.6 186.0, 80.7 186.0, 81.8 186.0 C 83.0 185.9, 84.1 185.8, 85.3 185.7 C 86.4 185.7, 87.5 185.5, 88.7 185.4 C 89.8 185.4, 90.9 185.4, 92.1 185.2 C 93.2 185.1, 94.4 184.7, 95.5 184.5 C 96.6 184.4, 97.8 184.4, 98.9 184.4 C 100.1 184.3, 101.2 184.2, 102.3 184.1 C 103.5 183.9, 104.6 183.6, 105.8 183.4 C 106.9 183.3, 108.0 183.2, 109.2 183.1 C 110.3 183.1, 111.4 183.1, 112.6 183.1 C 113.7 183.1, 114.9 183.1, 116.0 183.1 C 117.1 183.1, 118.3 183.1, 119.4 183.1 C 120.6 183.0, 121.7 182.7, 122.8 182.6 C 124.0 182.5, 125.1 182.6, 126.3 182.6 C 127.4 182.5, 128.5 182.5, 129.7 182.4 C 130.8 182.4, 131.9 182.4, 133.1 182.3 C 134.2 182.2, 135.4 182.0, 136.5 181.8 C 137.6 181.6, 138.8 181.3, 139.9 181.1 C 141.1 180.9, 142.2 180.9, 143.3 180.7 C 144.5 180.5, 145.6 180.4, 146.8 179.9 C 147.9 179.3, 149.0 177.8, 150.2 177.3 C 151.3 176.9, 152.4 177.2, 153.6 177.2 C 154.7 177.1, 155.9 177.3, 157.0 176.9 C 158.1 176.5, 159.3 175.2, 160.4 174.7 C 161.6 174.3, 162.7 174.6, 163.8 174.3 C 165.0 174.0, 166.1 173.3, 167.3 173.1 C 168.4 172.9, 169.5 173.1, 170.7 173.1 C 171.8 173.0, 172.9 173.0, 174.1 172.9 C 175.2 172.8, 176.4 172.7, 177.5 172.5 C 178.6 172.3, 179.8 172.1, 180.9 171.7 C 182.1 171.4, 183.2 170.7, 184.3 170.4 C 185.5 170.2, 186.6 170.6, 187.8 170.2 C 188.9 169.7, 190.0 168.8, 191.2 167.7 C 192.3 166.5, 193.4 164.1, 194.6 163.2 C 195.7 162.4, 196.9 162.8, 198.0 162.7 C 199.1 162.6, 200.3 162.5, 201.4 162.4 C 202.6 162.3, 203.7 162.9, 204.8 162.3 C 206.0 161.6, 207.1 159.5, 208.3 158.6 C 209.4 157.7, 210.5 157.5, 211.7 156.9 C 212.8 156.4, 213.9 155.6, 215.1 155.3 C 216.2 154.9, 217.4 155.1, 218.5 154.7 C 219.6 154.3, 220.8 153.3, 221.9 152.9 C 223.1 152.4, 224.2 152.4, 225.3 152.0 C 226.5 151.5, 227.6 150.7, 228.8 150.2 C 229.9 149.8, 231.0 150.5, 232.2 149.5 C 233.3 148.5, 234.4 145.2, 235.6 144.3 C 236.7 143.5, 237.9 144.3, 239.0 144.2 C 240.1 144.2, 241.3 144.2, 242.4 144.1 C 243.6 144.1, 244.7 143.9, 245.8 143.9 C 247.0 143.8, 248.1 143.9, 249.3 143.7 C 250.4 143.5, 251.5 143.3, 252.7 142.5 C 253.8 141.7, 254.9 144.0, 256.1 138.9 C 257.2 133.9, 258.4 119.3, 259.5 112.3 C 260.6 105.4, 261.8 99.8, 262.9 97.3 C 264.1 94.7, 265.2 97.2, 266.3 97.1 C 267.5 97.0, 268.6 96.8, 269.8 96.7 C 270.9 96.6, 272.0 96.7, 273.2 96.6 C 274.3 96.6, 275.4 96.4, 276.6 96.3 C 277.7 96.2, 278.9 96.2, 280.0 96.1 C 281.1 96.0, 282.3 95.9, 283.4 95.7 C 284.6 95.6, 285.7 97.2, 286.8 95.3 C 288.0 93.4, 289.1 86.6, 290.3 84.4 C 291.4 82.1, 292.5 82.2, 293.7 81.6 C 294.8 81.1, 295.9 81.7, 297.1 81.1 C 298.2 80.5, 299.4 78.7, 300.5 78.0 C 301.6 77.3, 302.8 77.3, 303.9 76.7 C 305.1 76.2, 306.2 75.2, 307.3 74.6 C 308.5 74.0, 309.6 73.5, 310.8 73.2 C 311.9 72.9, 313.0 73.0, 314.2 73.0 C 315.3 72.9, 316.4 73.1, 317.6 72.9 C 318.7 72.8, 319.9 72.3, 321.0 72.0 C 322.1 71.7, 323.3 72.2, 324.4 71.0 C 325.6 69.8, 326.7 66.3, 327.8 64.7 C 329.0 63.1, 330.1 63.1, 331.3 61.4 C 332.4 59.7, 333.5 56.1, 334.7 54.7 C 335.8 53.3, 336.9 53.4, 338.1 52.8 C 339.2 52.2, 340.4 52.2, 341.5 50.9 C 342.6 49.7, 343.8 46.3, 344.9 45.3 C 346.1 44.3, 347.2 45.2, 348.3 44.8 C 349.5 44.5, 350.6 44.0, 351.8 43.2 C 352.9 42.4, 354.0 40.9, 355.2 39.9 C 356.3 38.9, 357.4 38.0, 358.6 37.0 C 359.7 36.1, 361.4 34.5, 362.0 34.0" fill="none" stroke="url(#line)" stroke-width="2.2" stroke-linecap="round" stroke-linejoin="round"/>
    <circle cx="34.0" cy="189.8" r="2.5" fill="#a8b007"/>
    <circle cx="362.0" cy="34.0" r="2.8" fill="#ebf17e"/>
  </g>
  <text x="34" y="212" fill="#8b949e" font-family="-apple-system,BlinkMacSystemFont,Segoe UI,Inter,Arial,sans-serif" font-size="11">Jan 6</text>
  <text x="362" y="212" text-anchor="end" fill="#8b949e" font-family="-apple-system,BlinkMacSystemFont,Segoe UI,Inter,Arial,sans-serif" font-size="11">Jun 29</text>
</svg>
