<svg xmlns="http://www.w3.org/2000/svg" width="380" height="226" viewBox="0 0 380 226" role="img" aria-labelledby="title desc">
  <title id="title">Codex tokens over time</title>
  <desc id="desc">Line graph of cumulative Codex tokens from Jan 6 to Jul 3, ending at 3.41B.</desc>
  <defs>
    <linearGradient id="line" x1="0" x2="1" y1="0" y2="0">
      <stop offset="0" stop-color="#0e69af"/>
      <stop offset=".55" stop-color="#89c1eb"/>
      <stop offset="1" stop-color="#3498e5"/>
    </linearGradient>
    <linearGradient id="area" x1="0" x2="0" y1="0" y2="1">
      <stop offset="0" stop-color="#3498e5" stop-opacity=".28"/>
      <stop offset="1" stop-color="#3498e5" stop-opacity="0"/>
    </linearGradient>
    <clipPath id="plot">
      <rect x="34" y="34" width="328" height="156"/>
    </clipPath>
  </defs>
  <rect width="380" height="226" rx="8" fill="#0d1117"/>
  <rect x=".5" y=".5" width="379" height="225" rx="8" fill="none" stroke="#30363d"/>
  <text x="34" y="22" fill="#e6edf3" font-family="-apple-system,BlinkMacSystemFont,Segoe UI,Inter,Arial,sans-serif" font-size="13" font-weight="650">tokens over time</text>
  <text x="362" y="22" text-anchor="end" fill="#8b949e" font-family="-apple-system,BlinkMacSystemFont,Segoe UI,Inter,Arial,sans-serif" font-size="11">3.41B</text>
  <g>
    <line x1="34" y1="34.0" x2="362" y2="34.0" stroke="#21262d" stroke-width="1"/>
    <line x1="34" y1="73.0" x2="362" y2="73.0" stroke="#21262d" stroke-width="1"/>
    <line x1="34" y1="112.0" x2="362" y2="112.0" stroke="#21262d" stroke-width="1"/>
    <line x1="34" y1="151.0" x2="362" y2="151.0" stroke="#21262d" stroke-width="1"/>
    <line x1="34" y1="190.0" x2="362" y2="190.0" stroke="#21262d" stroke-width="1"/>
    <line x1="34" y1="190" x2="362" y2="190" stroke="#30363d" stroke-width="1"/>
  </g>
  <g clip-path="url(#plot)">
    <path d="M 34.0 189.8 C 34.5 189.8, 36.2 190.0, 37.3 189.8 C 38.4 189.6, 39.5 188.7, 40.6 188.4 C 41.7 188.1, 42.7 188.1, 43.8 187.9 C 44.9 187.8, 46.0 187.7, 47.1 187.7 C 48.2 187.6, 49.3 187.7, 50.4 187.7 C 51.5 187.7, 52.6 187.7, 53.7 187.7 C 54.8 187.7, 55.9 187.6, 57.0 187.6 C 58.1 187.6, 59.1 187.7, 60.2 187.6 C 61.3 187.5, 62.4 187.2, 63.5 187.1 C 64.6 187.0, 65.7 187.0, 66.8 186.9 C 67.9 186.8, 69.0 186.6, 70.1 186.5 C 71.2 186.4, 72.3 186.5, 73.4 186.5 C 74.5 186.4, 75.5 186.3, 76.6 186.3 C 77.7 186.2, 78.8 186.3, 79.9 186.2 C 81.0 186.2, 82.1 186.1, 83.2 186.0 C 84.3 185.9, 85.4 185.8, 86.5 185.7 C 87.6 185.7, 88.7 185.7, 89.8 185.6 C 90.9 185.4, 91.9 185.0, 93.0 184.9 C 94.1 184.7, 95.2 184.8, 96.3 184.7 C 97.4 184.7, 98.5 184.6, 99.6 184.5 C 100.7 184.3, 101.8 184.0, 102.9 183.9 C 104.0 183.7, 105.1 183.6, 106.2 183.6 C 107.3 183.5, 108.3 183.6, 109.4 183.6 C 110.5 183.6, 111.6 183.5, 112.7 183.5 C 113.8 183.5, 114.9 183.6, 116.0 183.5 C 117.1 183.4, 118.2 183.2, 119.3 183.1 C 120.4 183.0, 121.5 183.1, 122.6 183.1 C 123.7 183.0, 124.7 182.9, 125.8 182.9 C 126.9 182.9, 128.0 182.9, 129.1 182.8 C 130.2 182.7, 131.3 182.5, 132.4 182.3 C 133.5 182.1, 134.6 181.9, 135.7 181.7 C 136.8 181.5, 137.9 181.5, 139.0 181.3 C 140.1 181.1, 141.1 181.1, 142.2 180.5 C 143.3 180.0, 144.4 178.6, 145.5 178.1 C 146.6 177.7, 147.7 178.0, 148.8 178.0 C 149.9 177.9, 151.0 178.2, 152.1 177.8 C 153.2 177.4, 154.3 176.1, 155.4 175.7 C 156.5 175.3, 157.5 175.6, 158.6 175.3 C 159.7 175.1, 160.8 174.4, 161.9 174.2 C 163.0 174.0, 164.1 174.2, 165.2 174.2 C 166.3 174.1, 167.4 174.1, 168.5 174.0 C 169.6 173.9, 170.7 173.8, 171.8 173.7 C 172.9 173.5, 173.9 173.2, 175.0 172.9 C 176.1 172.6, 177.2 172.0, 178.3 171.7 C 179.4 171.5, 180.5 171.9, 181.6 171.5 C 182.7 171.0, 183.8 170.2, 184.9 169.1 C 186.0 168.0, 187.1 165.7, 188.2 165.0 C 189.3 164.2, 190.3 164.6, 191.4 164.5 C 192.5 164.4, 193.6 164.3, 194.7 164.2 C 195.8 164.1, 196.9 164.7, 198.0 164.1 C 199.1 163.5, 200.2 161.5, 201.3 160.6 C 202.4 159.8, 203.5 159.6, 204.6 159.1 C 205.7 158.6, 206.7 157.9, 207.8 157.5 C 208.9 157.2, 210.0 157.4, 211.1 157.0 C 212.2 156.6, 213.3 155.7, 214.4 155.3 C 215.5 154.9, 216.6 154.9, 217.7 154.5 C 218.8 154.0, 219.9 153.2, 221.0 152.8 C 222.1 152.4, 223.1 153.0, 224.2 152.1 C 225.3 151.2, 226.4 148.1, 227.5 147.3 C 228.6 146.5, 229.7 147.2, 230.8 147.2 C 231.9 147.2, 233.0 147.2, 234.1 147.1 C 235.2 147.1, 236.3 146.9, 237.4 146.9 C 238.5 146.8, 239.5 146.9, 240.6 146.7 C 241.7 146.5, 242.8 146.3, 243.9 145.6 C 245.0 144.9, 246.1 147.0, 247.2 142.3 C 248.3 137.6, 249.4 123.9, 250.5 117.4 C 251.6 110.9, 252.7 105.7, 253.8 103.3 C 254.9 100.9, 255.9 103.3, 257.0 103.2 C 258.1 103.1, 259.2 102.8, 260.3 102.8 C 261.4 102.7, 262.5 102.8, 263.6 102.7 C 264.7 102.7, 265.8 102.5, 266.9 102.4 C 268.0 102.4, 269.1 102.3, 270.2 102.2 C 271.3 102.1, 272.3 102.0, 273.4 101.9 C 274.5 101.8, 275.6 103.2, 276.7 101.5 C 277.8 99.7, 278.9 93.4, 280.0 91.3 C 281.1 89.1, 282.2 89.2, 283.3 88.7 C 284.4 88.2, 285.5 88.7, 286.6 88.2 C 287.7 87.6, 288.7 86.0, 289.8 85.3 C 290.9 84.6, 292.0 84.6, 293.1 84.1 C 294.2 83.6, 295.3 82.7, 296.4 82.1 C 297.5 81.6, 298.6 81.1, 299.7 80.8 C 300.8 80.6, 301.9 80.6, 303.0 80.6 C 304.1 80.5, 305.1 80.7, 306.2 80.6 C 307.3 80.4, 308.4 80.0, 309.5 79.7 C 310.6 79.4, 311.7 79.9, 312.8 78.8 C 313.9 77.6, 315.0 74.4, 316.1 72.9 C 317.2 71.4, 318.3 71.3, 319.4 69.8 C 320.5 68.2, 321.5 64.8, 322.6 63.5 C 323.7 62.2, 324.8 62.3, 325.9 61.8 C 327.0 61.2, 328.1 61.2, 329.2 60.0 C 330.3 58.8, 331.4 55.7, 332.5 54.7 C 333.6 53.8, 334.7 54.6, 335.8 54.3 C 336.9 54.0, 337.9 53.6, 339.0 52.8 C 340.1 52.0, 341.2 50.7, 342.3 49.7 C 343.4 48.7, 344.5 47.9, 345.6 47.0 C 346.7 46.1, 347.8 45.5, 348.9 44.2 C 350.0 42.9, 351.1 40.2, 352.2 39.3 C 353.3 38.4, 354.3 39.7, 355.4 38.9 C 356.5 38.0, 357.6 35.0, 358.7 34.2 C 359.8 33.4, 361.5 34.0, 362.0 34.0 L 362.0 190.0 L 34.0 190.0 Z" fill="url(#area)"/>
    <path d="M 34.0 189.8 C 34.5 189.8, 36.2 190.0, 37.3 189.8 C 38.4 189.6, 39.5 188.7, 40.6 188.4 C 41.7 188.1, 42.7 188.1, 43.8 187.9 C 44.9 187.8, 46.0 187.7, 47.1 187.7 C 48.2 187.6, 49.3 187.7, 50.4 187.7 C 51.5 187.7, 52.6 187.7, 53.7 187.7 C 54.8 187.7, 55.9 187.6, 57.0 187.6 C 58.1 187.6, 59.1 187.7, 60.2 187.6 C 61.3 187.5, 62.4 187.2, 63.5 187.1 C 64.6 187.0, 65.7 187.0, 66.8 186.9 C 67.9 186.8, 69.0 186.6, 70.1 186.5 C 71.2 186.4, 72.3 186.5, 73.4 186.5 C 74.5 186.4, 75.5 186.3, 76.6 186.3 C 77.7 186.2, 78.8 186.3, 79.9 186.2 C 81.0 186.2, 82.1 186.1, 83.2 186.0 C 84.3 185.9, 85.4 185.8, 86.5 185.7 C 87.6 185.7, 88.7 185.7, 89.8 185.6 C 90.9 185.4, 91.9 185.0, 93.0 184.9 C 94.1 184.7, 95.2 184.8, 96.3 184.7 C 97.4 184.7, 98.5 184.6, 99.6 184.5 C 100.7 184.3, 101.8 184.0, 102.9 183.9 C 104.0 183.7, 105.1 183.6, 106.2 183.6 C 107.3 183.5, 108.3 183.6, 109.4 183.6 C 110.5 183.6, 111.6 183.5, 112.7 183.5 C 113.8 183.5, 114.9 183.6, 116.0 183.5 C 117.1 183.4, 118.2 183.2, 119.3 183.1 C 120.4 183.0, 121.5 183.1, 122.6 183.1 C 123.7 183.0, 124.7 182.9, 125.8 182.9 C 126.9 182.9, 128.0 182.9, 129.1 182.8 C 130.2 182.7, 131.3 182.5, 132.4 182.3 C 133.5 182.1, 134.6 181.9, 135.7 181.7 C 136.8 181.5, 137.9 181.5, 139.0 181.3 C 140.1 181.1, 141.1 181.1, 142.2 180.5 C 143.3 180.0, 144.4 178.6, 145.5 178.1 C 146.6 177.7, 147.7 178.0, 148.8 178.0 C 149.9 177.9, 151.0 178.2, 152.1 177.8 C 153.2 177.4, 154.3 176.1, 155.4 175.7 C 156.5 175.3, 157.5 175.6, 158.6 175.3 C 159.7 175.1, 160.8 174.4, 161.9 174.2 C 163.0 174.0, 164.1 174.2, 165.2 174.2 C 166.3 174.1, 167.4 174.1, 168.5 174.0 C 169.6 173.9, 170.7 173.8, 171.8 173.7 C 172.9 173.5, 173.9 173.2, 175.0 172.9 C 176.1 172.6, 177.2 172.0, 178.3 171.7 C 179.4 171.5, 180.5 171.9, 181.6 171.5 C 182.7 171.0, 183.8 170.2, 184.9 169.1 C 186.0 168.0, 187.1 165.7, 188.2 165.0 C 189.3 164.2, 190.3 164.6, 191.4 164.5 C 192.5 164.4, 193.6 164.3, 194.7 164.2 C 195.8 164.1, 196.9 164.7, 198.0 164.1 C 199.1 163.5, 200.2 161.5, 201.3 160.6 C 202.4 159.8, 203.5 159.6, 204.6 159.1 C 205.7 158.6, 206.7 157.9, 207.8 157.5 C 208.9 157.2, 210.0 157.4, 211.1 157.0 C 212.2 156.6, 213.3 155.7, 214.4 155.3 C 215.5 154.9, 216.6 154.9, 217.7 154.5 C 218.8 154.0, 219.9 153.2, 221.0 152.8 C 222.1 152.4, 223.1 153.0, 224.2 152.1 C 225.3 151.2, 226.4 148.1, 227.5 147.3 C 228.6 146.5, 229.7 147.2, 230.8 147.2 C 231.9 147.2, 233.0 147.2, 234.1 147.1 C 235.2 147.1, 236.3 146.9, 237.4 146.9 C 238.5 146.8, 239.5 146.9, 240.6 146.7 C 241.7 146.5, 242.8 146.3, 243.9 145.6 C 245.0 144.9, 246.1 147.0, 247.2 142.3 C 248.3 137.6, 249.4 123.9, 250.5 117.4 C 251.6 110.9, 252.7 105.7, 253.8 103.3 C 254.9 100.9, 255.9 103.3, 257.0 103.2 C 258.1 103.1, 259.2 102.8, 260.3 102.8 C 261.4 102.7, 262.5 102.8, 263.6 102.7 C 264.7 102.7, 265.8 102.5, 266.9 102.4 C 268.0 102.4, 269.1 102.3, 270.2 102.2 C 271.3 102.1, 272.3 102.0, 273.4 101.9 C 274.5 101.8, 275.6 103.2, 276.7 101.5 C 277.8 99.7, 278.9 93.4, 280.0 91.3 C 281.1 89.1, 282.2 89.2, 283.3 88.7 C 284.4 88.2, 285.5 88.7, 286.6 88.2 C 287.7 87.6, 288.7 86.0, 289.8 85.3 C 290.9 84.6, 292.0 84.6, 293.1 84.1 C 294.2 83.6, 295.3 82.7, 296.4 82.1 C 297.5 81.6, 298.6 81.1, 299.7 80.8 C 300.8 80.6, 301.9 80.6, 303.0 80.6 C 304.1 80.5, 305.1 80.7, 306.2 80.6 C 307.3 80.4, 308.4 80.0, 309.5 79.7 C 310.6 79.4, 311.7 79.9, 312.8 78.8 C 313.9 77.6, 315.0 74.4, 316.1 72.9 C 317.2 71.4, 318.3 71.3, 319.4 69.8 C 320.5 68.2, 321.5 64.8, 322.6 63.5 C 323.7 62.2, 324.8 62.3, 325.9 61.8 C 327.0 61.2, 328.1 61.2, 329.2 60.0 C 330.3 58.8, 331.4 55.7, 332.5 54.7 C 333.6 53.8, 334.7 54.6, 335.8 54.3 C 336.9 54.0, 337.9 53.6, 339.0 52.8 C 340.1 52.0, 341.2 50.7, 342.3 49.7 C 343.4 48.7, 344.5 47.9, 345.6 47.0 C 346.7 46.1, 347.8 45.5, 348.9 44.2 C 350.0 42.9, 351.1 40.2, 352.2 39.3 C 353.3 38.4, 354.3 39.7, 355.4 38.9 C 356.5 38.0, 357.6 35.0, 358.7 34.2 C 359.8 33.4, 361.5 34.0, 362.0 34.0" fill="none" stroke="url(#line)" stroke-width="2.2" stroke-linecap="round" stroke-linejoin="round"/>
    <circle cx="34.0" cy="189.8" r="2.5" fill="#0e69af"/>
    <circle cx="362.0" cy="34.0" r="2.8" fill="#89c1eb"/>
  </g>
  <text x="34" y="212" fill="#8b949e" font-family="-apple-system,BlinkMacSystemFont,Segoe UI,Inter,Arial,sans-serif" font-size="11">Jan 6</text>
  <text x="362" y="212" text-anchor="end" fill="#8b949e" font-family="-apple-system,BlinkMacSystemFont,Segoe UI,Inter,Arial,sans-serif" font-size="11">Jul 3</text>
</svg>
