<svg xmlns="http://www.w3.org/2000/svg" width="380" height="226" viewBox="0 0 380 226" role="img" aria-labelledby="title desc">
  <title id="title">Codex tokens over time</title>
  <desc id="desc">Line graph of cumulative Codex tokens from Jan 6 to Jul 15, ending at 4.69B.</desc>
  <defs>
    <linearGradient id="line" x1="0" x2="1" y1="0" y2="0">
      <stop offset="0" stop-color="#27a607"/>
      <stop offset=".55" stop-color="#8eef76"/>
      <stop offset="1" stop-color="#46ed1d"/>
    </linearGradient>
    <linearGradient id="area" x1="0" x2="0" y1="0" y2="1">
      <stop offset="0" stop-color="#46ed1d" stop-opacity=".28"/>
      <stop offset="1" stop-color="#46ed1d" stop-opacity="0"/>
    </linearGradient>
    <clipPath id="plot">
      <rect x="34" y="34" width="328" height="156"/>
    </clipPath>
  </defs>
  <rect width="380" height="226" rx="8" fill="#0d1117"/>
  <rect x=".5" y=".5" width="379" height="225" rx="8" fill="none" stroke="#30363d"/>
  <text x="34" y="22" fill="#e6edf3" font-family="-apple-system,BlinkMacSystemFont,Segoe UI,Inter,Arial,sans-serif" font-size="13" font-weight="650">tokens over time</text>
  <text x="362" y="22" text-anchor="end" fill="#8b949e" font-family="-apple-system,BlinkMacSystemFont,Segoe UI,Inter,Arial,sans-serif" font-size="11">4.69B</text>
  <g>
    <line x1="34" y1="34.0" x2="362" y2="34.0" stroke="#21262d" stroke-width="1"/>
    <line x1="34" y1="73.0" x2="362" y2="73.0" stroke="#21262d" stroke-width="1"/>
    <line x1="34" y1="112.0" x2="362" y2="112.0" stroke="#21262d" stroke-width="1"/>
    <line x1="34" y1="151.0" x2="362" y2="151.0" stroke="#21262d" stroke-width="1"/>
    <line x1="34" y1="190.0" x2="362" y2="190.0" stroke="#21262d" stroke-width="1"/>
    <line x1="34" y1="190" x2="362" y2="190" stroke="#30363d" stroke-width="1"/>
  </g>
  <g clip-path="url(#plot)">
    <path d="M 34.0 189.9 C 34.5 189.9, 36.0 190.0, 36.9 189.8 C 37.9 189.7, 38.9 189.1, 39.9 188.9 C 40.8 188.6, 41.8 188.6, 42.8 188.5 C 43.8 188.4, 44.7 188.3, 45.7 188.3 C 46.7 188.3, 47.7 188.3, 48.6 188.3 C 49.6 188.3, 50.6 188.3, 51.6 188.3 C 52.5 188.3, 53.5 188.3, 54.5 188.3 C 55.5 188.3, 56.5 188.3, 57.4 188.3 C 58.4 188.2, 59.4 188.0, 60.4 187.9 C 61.3 187.8, 62.3 187.8, 63.3 187.7 C 64.3 187.7, 65.2 187.5, 66.2 187.5 C 67.2 187.4, 68.2 187.4, 69.1 187.4 C 70.1 187.4, 71.1 187.3, 72.1 187.3 C 73.0 187.3, 74.0 187.3, 75.0 187.3 C 76.0 187.2, 77.0 187.2, 77.9 187.1 C 78.9 187.0, 79.9 187.0, 80.9 186.9 C 81.8 186.8, 82.8 186.9, 83.8 186.8 C 84.8 186.7, 85.7 186.4, 86.7 186.3 C 87.7 186.2, 88.7 186.2, 89.6 186.2 C 90.6 186.1, 91.6 186.1, 92.6 186.0 C 93.5 185.9, 94.5 185.6, 95.5 185.5 C 96.5 185.4, 97.5 185.4, 98.4 185.3 C 99.4 185.3, 100.4 185.3, 101.4 185.3 C 102.3 185.3, 103.3 185.3, 104.3 185.3 C 105.3 185.3, 106.2 185.3, 107.2 185.3 C 108.2 185.2, 109.2 185.0, 110.1 185.0 C 111.1 184.9, 112.1 185.0, 113.1 184.9 C 114.0 184.9, 115.0 184.9, 116.0 184.8 C 117.0 184.8, 118.0 184.8, 118.9 184.7 C 119.9 184.7, 120.9 184.5, 121.9 184.4 C 122.8 184.3, 123.8 184.1, 124.8 184.0 C 125.8 183.8, 126.7 183.8, 127.7 183.7 C 128.7 183.5, 129.7 183.5, 130.6 183.1 C 131.6 182.7, 132.6 181.7, 133.6 181.4 C 134.5 181.0, 135.5 181.3, 136.5 181.3 C 137.5 181.2, 138.5 181.4, 139.4 181.1 C 140.4 180.8, 141.4 179.9, 142.4 179.6 C 143.3 179.3, 144.3 179.5, 145.3 179.3 C 146.3 179.1, 147.2 178.6, 148.2 178.5 C 149.2 178.4, 150.2 178.5, 151.1 178.5 C 152.1 178.5, 153.1 178.4, 154.1 178.3 C 155.0 178.3, 156.0 178.2, 157.0 178.1 C 158.0 178.0, 159.0 177.8, 159.9 177.6 C 160.9 177.3, 161.9 176.9, 162.9 176.7 C 163.8 176.5, 164.8 176.8, 165.8 176.5 C 166.8 176.2, 167.7 175.6, 168.7 174.8 C 169.7 174.0, 170.7 172.3, 171.6 171.8 C 172.6 171.2, 173.6 171.5, 174.6 171.4 C 175.5 171.3, 176.5 171.3, 177.5 171.2 C 178.5 171.2, 179.5 171.5, 180.4 171.1 C 181.4 170.7, 182.4 169.2, 183.4 168.6 C 184.3 168.0, 185.3 167.8, 186.3 167.5 C 187.3 167.1, 188.2 166.6, 189.2 166.3 C 190.2 166.1, 191.2 166.2, 192.1 166.0 C 193.1 165.7, 194.1 165.0, 195.1 164.7 C 196.0 164.4, 197.0 164.4, 198.0 164.1 C 199.0 163.8, 200.0 163.2, 200.9 162.9 C 201.9 162.6, 202.9 163.1, 203.9 162.4 C 204.8 161.7, 205.8 159.5, 206.8 158.9 C 207.8 158.3, 208.7 158.8, 209.7 158.8 C 210.7 158.8, 211.7 158.8, 212.6 158.8 C 213.6 158.7, 214.6 158.6, 215.6 158.6 C 216.5 158.5, 217.5 158.6, 218.5 158.5 C 219.5 158.3, 220.5 158.2, 221.4 157.7 C 222.4 157.1, 223.4 158.7, 224.4 155.2 C 225.3 151.8, 226.3 141.8, 227.3 137.1 C 228.3 132.4, 229.2 128.6, 230.2 126.8 C 231.2 125.1, 232.2 126.8, 233.1 126.7 C 234.1 126.7, 235.1 126.5, 236.1 126.4 C 237.0 126.4, 238.0 126.4, 239.0 126.4 C 240.0 126.4, 241.0 126.3, 241.9 126.2 C 242.9 126.2, 243.9 126.1, 244.9 126.0 C 245.8 126.0, 246.8 125.9, 247.8 125.8 C 248.8 125.7, 249.7 126.8, 250.7 125.5 C 251.7 124.2, 252.7 119.6, 253.6 118.1 C 254.6 116.5, 255.6 116.6, 256.6 116.2 C 257.5 115.8, 258.5 116.2, 259.5 115.8 C 260.5 115.4, 261.5 114.2, 262.4 113.7 C 263.4 113.2, 264.4 113.2, 265.4 112.9 C 266.3 112.5, 267.3 111.8, 268.3 111.4 C 269.3 111.0, 270.2 110.7, 271.2 110.5 C 272.2 110.3, 273.2 110.3, 274.1 110.3 C 275.1 110.3, 276.1 110.4, 277.1 110.3 C 278.0 110.2, 279.0 109.9, 280.0 109.6 C 281.0 109.4, 282.0 109.8, 282.9 109.0 C 283.9 108.1, 284.9 105.8, 285.9 104.7 C 286.8 103.6, 287.8 103.5, 288.8 102.4 C 289.8 101.3, 290.7 98.8, 291.7 97.8 C 292.7 96.9, 293.7 97.0, 294.6 96.6 C 295.6 96.1, 296.6 96.1, 297.6 95.3 C 298.5 94.4, 299.5 92.1, 300.5 91.5 C 301.5 90.8, 302.5 91.4, 303.4 91.1 C 304.4 90.9, 305.4 90.6, 306.4 90.0 C 307.3 89.5, 308.3 88.5, 309.3 87.8 C 310.3 87.1, 311.2 86.5, 312.2 85.8 C 313.2 85.2, 314.2 84.7, 315.1 83.8 C 316.1 82.8, 317.1 80.9, 318.1 80.2 C 319.0 79.6, 320.0 80.5, 321.0 79.9 C 322.0 79.3, 323.0 77.1, 323.9 76.5 C 324.9 75.9, 325.9 76.6, 326.9 76.4 C 327.8 76.1, 328.8 75.5, 329.8 75.0 C 330.8 74.6, 331.7 74.3, 332.7 73.6 C 333.7 72.8, 334.7 71.4, 335.6 70.6 C 336.6 69.8, 337.6 69.3, 338.6 68.8 C 339.5 68.2, 340.5 68.6, 341.5 67.4 C 342.5 66.1, 343.5 64.0, 344.4 61.3 C 345.4 58.6, 346.4 53.1, 347.4 51.1 C 348.3 49.2, 349.3 50.5, 350.3 49.5 C 351.3 48.5, 352.2 46.8, 353.2 45.2 C 354.2 43.5, 355.2 41.4, 356.1 39.5 C 357.1 37.7, 358.1 35.0, 359.1 34.1 C 360.0 33.1, 361.5 34.0, 362.0 34.0 L 362.0 190.0 L 34.0 190.0 Z" fill="url(#area)"/>
    <path d="M 34.0 189.9 C 34.5 189.9, 36.0 190.0, 36.9 189.8 C 37.9 189.7, 38.9 189.1, 39.9 188.9 C 40.8 188.6, 41.8 188.6, 42.8 188.5 C 43.8 188.4, 44.7 188.3, 45.7 188.3 C 46.7 188.3, 47.7 188.3, 48.6 188.3 C 49.6 188.3, 50.6 188.3, 51.6 188.3 C 52.5 188.3, 53.5 188.3, 54.5 188.3 C 55.5 188.3, 56.5 188.3, 57.4 188.3 C 58.4 188.2, 59.4 188.0, 60.4 187.9 C 61.3 187.8, 62.3 187.8, 63.3 187.7 C 64.3 187.7, 65.2 187.5, 66.2 187.5 C 67.2 187.4, 68.2 187.4, 69.1 187.4 C 70.1 187.4, 71.1 187.3, 72.1 187.3 C 73.0 187.3, 74.0 187.3, 75.0 187.3 C 76.0 187.2, 77.0 187.2, 77.9 187.1 C 78.9 187.0, 79.9 187.0, 80.9 186.9 C 81.8 186.8, 82.8 186.9, 83.8 186.8 C 84.8 186.7, 85.7 186.4, 86.7 186.3 C 87.7 186.2, 88.7 186.2, 89.6 186.2 C 90.6 186.1, 91.6 186.1, 92.6 186.0 C 93.5 185.9, 94.5 185.6, 95.5 185.5 C 96.5 185.4, 97.5 185.4, 98.4 185.3 C 99.4 185.3, 100.4 185.3, 101.4 185.3 C 102.3 185.3, 103.3 185.3, 104.3 185.3 C 105.3 185.3, 106.2 185.3, 107.2 185.3 C 108.2 185.2, 109.2 185.0, 110.1 185.0 C 111.1 184.9, 112.1 185.0, 113.1 184.9 C 114.0 184.9, 115.0 184.9, 116.0 184.8 C 117.0 184.8, 118.0 184.8, 118.9 184.7 C 119.9 184.7, 120.9 184.5, 121.9 184.4 C 122.8 184.3, 123.8 184.1, 124.8 184.0 C 125.8 183.8, 126.7 183.8, 127.7 183.7 C 128.7 183.5, 129.7 183.5, 130.6 183.1 C 131.6 182.7, 132.6 181.7, 133.6 181.4 C 134.5 181.0, 135.5 181.3, 136.5 181.3 C 137.5 181.2, 138.5 181.4, 139.4 181.1 C 140.4 180.8, 141.4 179.9, 142.4 179.6 C 143.3 179.3, 144.3 179.5, 145.3 179.3 C 146.3 179.1, 147.2 178.6, 148.2 178.5 C 149.2 178.4, 150.2 178.5, 151.1 178.5 C 152.1 178.5, 153.1 178.4, 154.1 178.3 C 155.0 178.3, 156.0 178.2, 157.0 178.1 C 158.0 178.0, 159.0 177.8, 159.9 177.6 C 160.9 177.3, 161.9 176.9, 162.9 176.7 C 163.8 176.5, 164.8 176.8, 165.8 176.5 C 166.8 176.2, 167.7 175.6, 168.7 174.8 C 169.7 174.0, 170.7 172.3, 171.6 171.8 C 172.6 171.2, 173.6 171.5, 174.6 171.4 C 175.5 171.3, 176.5 171.3, 177.5 171.2 C 178.5 171.2, 179.5 171.5, 180.4 171.1 C 181.4 170.7, 182.4 169.2, 183.4 168.6 C 184.3 168.0, 185.3 167.8, 186.3 167.5 C 187.3 167.1, 188.2 166.6, 189.2 166.3 C 190.2 166.1, 191.2 166.2, 192.1 166.0 C 193.1 165.7, 194.1 165.0, 195.1 164.7 C 196.0 164.4, 197.0 164.4, 198.0 164.1 C 199.0 163.8, 200.0 163.2, 200.9 162.9 C 201.9 162.6, 202.9 163.1, 203.9 162.4 C 204.8 161.7, 205.8 159.5, 206.8 158.9 C 207.8 158.3, 208.7 158.8, 209.7 158.8 C 210.7 158.8, 211.7 158.8, 212.6 158.8 C 213.6 158.7, 214.6 158.6, 215.6 158.6 C 216.5 158.5, 217.5 158.6, 218.5 158.5 C 219.5 158.3, 220.5 158.2, 221.4 157.7 C 222.4 157.1, 223.4 158.7, 224.4 155.2 C 225.3 151.8, 226.3 141.8, 227.3 137.1 C 228.3 132.4, 229.2 128.6, 230.2 126.8 C 231.2 125.1, 232.2 126.8, 233.1 126.7 C 234.1 126.7, 235.1 126.5, 236.1 126.4 C 237.0 126.4, 238.0 126.4, 239.0 126.4 C 240.0 126.4, 241.0 126.3, 241.9 126.2 C 242.9 126.2, 243.9 126.1, 244.9 126.0 C 245.8 126.0, 246.8 125.9, 247.8 125.8 C 248.8 125.7, 249.7 126.8, 250.7 125.5 C 251.7 124.2, 252.7 119.6, 253.6 118.1 C 254.6 116.5, 255.6 116.6, 256.6 116.2 C 257.5 115.8, 258.5 116.2, 259.5 115.8 C 260.5 115.4, 261.5 114.2, 262.4 113.7 C 263.4 113.2, 264.4 113.2, 265.4 112.9 C 266.3 112.5, 267.3 111.8, 268.3 111.4 C 269.3 111.0, 270.2 110.7, 271.2 110.5 C 272.2 110.3, 273.2 110.3, 274.1 110.3 C 275.1 110.3, 276.1 110.4, 277.1 110.3 C 278.0 110.2, 279.0 109.9, 280.0 109.6 C 281.0 109.4, 282.0 109.8, 282.9 109.0 C 283.9 108.1, 284.9 105.8, 285.9 104.7 C 286.8 103.6, 287.8 103.5, 288.8 102.4 C 289.8 101.3, 290.7 98.8, 291.7 97.8 C 292.7 96.9, 293.7 97.0, 294.6 96.6 C 295.6 96.1, 296.6 96.1, 297.6 95.3 C 298.5 94.4, 299.5 92.1, 300.5 91.5 C 301.5 90.8, 302.5 91.4, 303.4 91.1 C 304.4 90.9, 305.4 90.6, 306.4 90.0 C 307.3 89.5, 308.3 88.5, 309.3 87.8 C 310.3 87.1, 311.2 86.5, 312.2 85.8 C 313.2 85.2, 314.2 84.7, 315.1 83.8 C 316.1 82.8, 317.1 80.9, 318.1 80.2 C 319.0 79.6, 320.0 80.5, 321.0 79.9 C 322.0 79.3, 323.0 77.1, 323.9 76.5 C 324.9 75.9, 325.9 76.6, 326.9 76.4 C 327.8 76.1, 328.8 75.5, 329.8 75.0 C 330.8 74.6, 331.7 74.3, 332.7 73.6 C 333.7 72.8, 334.7 71.4, 335.6 70.6 C 336.6 69.8, 337.6 69.3, 338.6 68.8 C 339.5 68.2, 340.5 68.6, 341.5 67.4 C 342.5 66.1, 343.5 64.0, 344.4 61.3 C 345.4 58.6, 346.4 53.1, 347.4 51.1 C 348.3 49.2, 349.3 50.5, 350.3 49.5 C 351.3 48.5, 352.2 46.8, 353.2 45.2 C 354.2 43.5, 355.2 41.4, 356.1 39.5 C 357.1 37.7, 358.1 35.0, 359.1 34.1 C 360.0 33.1, 361.5 34.0, 362.0 34.0" fill="none" stroke="url(#line)" stroke-width="2.2" stroke-linecap="round" stroke-linejoin="round"/>
    <circle cx="34.0" cy="189.9" r="2.5" fill="#27a607"/>
    <circle cx="362.0" cy="34.0" r="2.8" fill="#8eef76"/>
  </g>
  <text x="34" y="212" fill="#8b949e" font-family="-apple-system,BlinkMacSystemFont,Segoe UI,Inter,Arial,sans-serif" font-size="11">Jan 6</text>
  <text x="362" y="212" text-anchor="end" fill="#8b949e" font-family="-apple-system,BlinkMacSystemFont,Segoe UI,Inter,Arial,sans-serif" font-size="11">Jul 15</text>
</svg>
