<svg xmlns="http://www.w3.org/2000/svg" width="380" height="226" viewBox="0 0 380 226" role="img" aria-labelledby="title desc">
  <title id="title">Codex tokens over time</title>
  <desc id="desc">Line graph of cumulative Codex tokens from Jan 6 to Jun 27, ending at 3.07B.</desc>
  <defs>
    <linearGradient id="line" x1="0" x2="1" y1="0" y2="0">
      <stop offset="0" stop-color="#1610bc"/>
      <stop offset=".55" stop-color="#9a97ed"/>
      <stop offset="1" stop-color="#4843e5"/>
    </linearGradient>
    <linearGradient id="area" x1="0" x2="0" y1="0" y2="1">
      <stop offset="0" stop-color="#4843e5" stop-opacity=".28"/>
      <stop offset="1" stop-color="#4843e5" stop-opacity="0"/>
    </linearGradient>
    <clipPath id="plot">
      <rect x="34" y="34" width="328" height="156"/>
    </clipPath>
  </defs>
  <rect width="380" height="226" rx="8" fill="#0d1117"/>
  <rect x=".5" y=".5" width="379" height="225" rx="8" fill="none" stroke="#30363d"/>
  <text x="34" y="22" fill="#e6edf3" font-family="-apple-system,BlinkMacSystemFont,Segoe UI,Inter,Arial,sans-serif" font-size="13" font-weight="650">tokens over time</text>
  <text x="362" y="22" text-anchor="end" fill="#8b949e" font-family="-apple-system,BlinkMacSystemFont,Segoe UI,Inter,Arial,sans-serif" font-size="11">3.07B</text>
  <g>
    <line x1="34" y1="34.0" x2="362" y2="34.0" stroke="#21262d" stroke-width="1"/>
    <line x1="34" y1="73.0" x2="362" y2="73.0" stroke="#21262d" stroke-width="1"/>
    <line x1="34" y1="112.0" x2="362" y2="112.0" stroke="#21262d" stroke-width="1"/>
    <line x1="34" y1="151.0" x2="362" y2="151.0" stroke="#21262d" stroke-width="1"/>
    <line x1="34" y1="190.0" x2="362" y2="190.0" stroke="#21262d" stroke-width="1"/>
    <line x1="34" y1="190" x2="362" y2="190" stroke="#30363d" stroke-width="1"/>
  </g>
  <g clip-path="url(#plot)">
    <path d="M 34.0 189.8 C 34.6 189.8, 36.3 190.0, 37.5 189.8 C 38.7 189.5, 39.8 188.6, 41.0 188.3 C 42.1 187.9, 43.3 187.8, 44.5 187.7 C 45.6 187.6, 46.8 187.5, 48.0 187.4 C 49.1 187.4, 50.3 187.4, 51.4 187.4 C 52.6 187.4, 53.8 187.4, 54.9 187.4 C 56.1 187.4, 57.3 187.4, 58.4 187.4 C 59.6 187.4, 60.8 187.5, 61.9 187.4 C 63.1 187.3, 64.2 186.9, 65.4 186.8 C 66.6 186.6, 67.7 186.7, 68.9 186.6 C 70.1 186.5, 71.2 186.2, 72.4 186.1 C 73.5 186.0, 74.7 186.1, 75.9 186.1 C 77.0 186.0, 78.2 185.9, 79.4 185.8 C 80.5 185.8, 81.7 185.9, 82.9 185.8 C 84.0 185.8, 85.2 185.7, 86.3 185.6 C 87.5 185.5, 88.7 185.3, 89.8 185.3 C 91.0 185.2, 92.2 185.2, 93.3 185.1 C 94.5 184.9, 95.6 184.4, 96.8 184.3 C 98.0 184.1, 99.1 184.2, 100.3 184.1 C 101.5 184.1, 102.6 184.0, 103.8 183.9 C 105.0 183.7, 106.1 183.4, 107.3 183.2 C 108.4 183.0, 109.6 182.9, 110.8 182.9 C 111.9 182.8, 113.1 182.9, 114.3 182.9 C 115.4 182.8, 116.6 182.8, 117.7 182.8 C 118.9 182.8, 120.1 182.9, 121.2 182.8 C 122.4 182.7, 123.6 182.4, 124.7 182.3 C 125.9 182.2, 127.0 182.3, 128.2 182.3 C 129.4 182.2, 130.5 182.2, 131.7 182.1 C 132.9 182.1, 134.0 182.1, 135.2 182.0 C 136.4 181.9, 137.5 181.7, 138.7 181.5 C 139.8 181.3, 141.0 181.0, 142.2 180.8 C 143.3 180.6, 144.5 180.6, 145.7 180.4 C 146.8 180.1, 148.0 180.1, 149.1 179.5 C 150.3 178.9, 151.5 177.3, 152.6 176.8 C 153.8 176.3, 155.0 176.7, 156.1 176.6 C 157.3 176.6, 158.5 176.8, 159.6 176.4 C 160.8 176.0, 161.9 174.6, 163.1 174.1 C 164.3 173.7, 165.4 174.0, 166.6 173.7 C 167.8 173.4, 168.9 172.7, 170.1 172.4 C 171.2 172.2, 172.4 172.5, 173.6 172.4 C 174.7 172.4, 175.9 172.3, 177.1 172.2 C 178.2 172.1, 179.4 172.0, 180.6 171.8 C 181.7 171.6, 182.9 171.4, 184.0 171.0 C 185.2 170.6, 186.4 169.9, 187.5 169.7 C 188.7 169.4, 189.9 169.9, 191.0 169.4 C 192.2 168.9, 193.3 168.0, 194.5 166.8 C 195.7 165.6, 196.8 163.0, 198.0 162.2 C 199.2 161.3, 200.3 161.8, 201.5 161.6 C 202.7 161.5, 203.8 161.4, 205.0 161.3 C 206.1 161.2, 207.3 161.8, 208.5 161.2 C 209.6 160.5, 210.8 158.3, 212.0 157.3 C 213.1 156.4, 214.3 156.2, 215.4 155.6 C 216.6 155.0, 217.8 154.3, 218.9 153.9 C 220.1 153.5, 221.3 153.7, 222.4 153.3 C 223.6 152.9, 224.8 151.9, 225.9 151.4 C 227.1 151.0, 228.2 150.9, 229.4 150.5 C 230.6 150.0, 231.7 149.1, 232.9 148.7 C 234.1 148.2, 235.2 148.9, 236.4 147.9 C 237.5 146.9, 238.7 143.4, 239.9 142.5 C 241.0 141.6, 242.2 142.5, 243.4 142.4 C 244.5 142.4, 245.7 142.4, 246.9 142.3 C 248.0 142.3, 249.2 142.1, 250.3 142.0 C 251.5 142.0, 252.7 142.1, 253.8 141.9 C 255.0 141.6, 256.2 141.5, 257.3 140.6 C 258.5 139.8, 259.6 142.2, 260.8 136.9 C 262.0 131.7, 263.1 116.5, 264.3 109.3 C 265.5 102.0, 266.6 96.3, 267.8 93.6 C 269.0 91.0, 270.1 93.6, 271.3 93.5 C 272.4 93.3, 273.6 93.1, 274.8 93.0 C 275.9 92.9, 277.1 93.0, 278.3 92.9 C 279.4 92.9, 280.6 92.8, 281.7 92.7 C 282.9 92.6, 284.1 92.5, 285.2 92.4 C 286.4 92.3, 287.6 92.2, 288.7 92.0 C 289.9 91.9, 291.0 93.5, 292.2 91.6 C 293.4 89.6, 294.5 82.6, 295.7 80.2 C 296.9 77.8, 298.0 77.9, 299.2 77.3 C 300.4 76.8, 301.5 77.4, 302.7 76.8 C 303.8 76.2, 305.0 74.4, 306.2 73.6 C 307.3 72.8, 308.5 72.9, 309.7 72.3 C 310.8 71.7, 312.0 70.7, 313.1 70.1 C 314.3 69.5, 315.5 68.9, 316.6 68.6 C 317.8 68.3, 319.0 68.4, 320.1 68.3 C 321.3 68.3, 322.5 68.5, 323.6 68.3 C 324.8 68.2, 325.9 67.7, 327.1 67.3 C 328.3 67.0, 329.4 67.6, 330.6 66.3 C 331.8 65.1, 332.9 61.4, 334.1 59.8 C 335.2 58.1, 336.4 58.1, 337.6 56.3 C 338.7 54.6, 339.9 50.8, 341.1 49.4 C 342.2 47.9, 343.4 48.1, 344.6 47.4 C 345.7 46.8, 346.9 46.7, 348.0 45.4 C 349.2 44.1, 350.4 40.6, 351.5 39.6 C 352.7 38.5, 353.9 39.5, 355.0 39.1 C 356.2 38.7, 357.3 38.3, 358.5 37.4 C 359.7 36.6, 361.4 34.6, 362.0 34.0 L 362.0 190.0 L 34.0 190.0 Z" fill="url(#area)"/>
    <path d="M 34.0 189.8 C 34.6 189.8, 36.3 190.0, 37.5 189.8 C 38.7 189.5, 39.8 188.6, 41.0 188.3 C 42.1 187.9, 43.3 187.8, 44.5 187.7 C 45.6 187.6, 46.8 187.5, 48.0 187.4 C 49.1 187.4, 50.3 187.4, 51.4 187.4 C 52.6 187.4, 53.8 187.4, 54.9 187.4 C 56.1 187.4, 57.3 187.4, 58.4 187.4 C 59.6 187.4, 60.8 187.5, 61.9 187.4 C 63.1 187.3, 64.2 186.9, 65.4 186.8 C 66.6 186.6, 67.7 186.7, 68.9 186.6 C 70.1 186.5, 71.2 186.2, 72.4 186.1 C 73.5 186.0, 74.7 186.1, 75.9 186.1 C 77.0 186.0, 78.2 185.9, 79.4 185.8 C 80.5 185.8, 81.7 185.9, 82.9 185.8 C 84.0 185.8, 85.2 185.7, 86.3 185.6 C 87.5 185.5, 88.7 185.3, 89.8 185.3 C 91.0 185.2, 92.2 185.2, 93.3 185.1 C 94.5 184.9, 95.6 184.4, 96.8 184.3 C 98.0 184.1, 99.1 184.2, 100.3 184.1 C 101.5 184.1, 102.6 184.0, 103.8 183.9 C 105.0 183.7, 106.1 183.4, 107.3 183.2 C 108.4 183.0, 109.6 182.9, 110.8 182.9 C 111.9 182.8, 113.1 182.9, 114.3 182.9 C 115.4 182.8, 116.6 182.8, 117.7 182.8 C 118.9 182.8, 120.1 182.9, 121.2 182.8 C 122.4 182.7, 123.6 182.4, 124.7 182.3 C 125.9 182.2, 127.0 182.3, 128.2 182.3 C 129.4 182.2, 130.5 182.2, 131.7 182.1 C 132.9 182.1, 134.0 182.1, 135.2 182.0 C 136.4 181.9, 137.5 181.7, 138.7 181.5 C 139.8 181.3, 141.0 181.0, 142.2 180.8 C 143.3 180.6, 144.5 180.6, 145.7 180.4 C 146.8 180.1, 148.0 180.1, 149.1 179.5 C 150.3 178.9, 151.5 177.3, 152.6 176.8 C 153.8 176.3, 155.0 176.7, 156.1 176.6 C 157.3 176.6, 158.5 176.8, 159.6 176.4 C 160.8 176.0, 161.9 174.6, 163.1 174.1 C 164.3 173.7, 165.4 174.0, 166.6 173.7 C 167.8 173.4, 168.9 172.7, 170.1 172.4 C 171.2 172.2, 172.4 172.5, 173.6 172.4 C 174.7 172.4, 175.9 172.3, 177.1 172.2 C 178.2 172.1, 179.4 172.0, 180.6 171.8 C 181.7 171.6, 182.9 171.4, 184.0 171.0 C 185.2 170.6, 186.4 169.9, 187.5 169.7 C 188.7 169.4, 189.9 169.9, 191.0 169.4 C 192.2 168.9, 193.3 168.0, 194.5 166.8 C 195.7 165.6, 196.8 163.0, 198.0 162.2 C 199.2 161.3, 200.3 161.8, 201.5 161.6 C 202.7 161.5, 203.8 161.4, 205.0 161.3 C 206.1 161.2, 207.3 161.8, 208.5 161.2 C 209.6 160.5, 210.8 158.3, 212.0 157.3 C 213.1 156.4, 214.3 156.2, 215.4 155.6 C 216.6 155.0, 217.8 154.3, 218.9 153.9 C 220.1 153.5, 221.3 153.7, 222.4 153.3 C 223.6 152.9, 224.8 151.9, 225.9 151.4 C 227.1 151.0, 228.2 150.9, 229.4 150.5 C 230.6 150.0, 231.7 149.1, 232.9 148.7 C 234.1 148.2, 235.2 148.9, 236.4 147.9 C 237.5 146.9, 238.7 143.4, 239.9 142.5 C 241.0 141.6, 242.2 142.5, 243.4 142.4 C 244.5 142.4, 245.7 142.4, 246.9 142.3 C 248.0 142.3, 249.2 142.1, 250.3 142.0 C 251.5 142.0, 252.7 142.1, 253.8 141.9 C 255.0 141.6, 256.2 141.5, 257.3 140.6 C 258.5 139.8, 259.6 142.2, 260.8 136.9 C 262.0 131.7, 263.1 116.5, 264.3 109.3 C 265.5 102.0, 266.6 96.3, 267.8 93.6 C 269.0 91.0, 270.1 93.6, 271.3 93.5 C 272.4 93.3, 273.6 93.1, 274.8 93.0 C 275.9 92.9, 277.1 93.0, 278.3 92.9 C 279.4 92.9, 280.6 92.8, 281.7 92.7 C 282.9 92.6, 284.1 92.5, 285.2 92.4 C 286.4 92.3, 287.6 92.2, 288.7 92.0 C 289.9 91.9, 291.0 93.5, 292.2 91.6 C 293.4 89.6, 294.5 82.6, 295.7 80.2 C 296.9 77.8, 298.0 77.9, 299.2 77.3 C 300.4 76.8, 301.5 77.4, 302.7 76.8 C 303.8 76.2, 305.0 74.4, 306.2 73.6 C 307.3 72.8, 308.5 72.9, 309.7 72.3 C 310.8 71.7, 312.0 70.7, 313.1 70.1 C 314.3 69.5, 315.5 68.9, 316.6 68.6 C 317.8 68.3, 319.0 68.4, 320.1 68.3 C 321.3 68.3, 322.5 68.5, 323.6 68.3 C 324.8 68.2, 325.9 67.7, 327.1 67.3 C 328.3 67.0, 329.4 67.6, 330.6 66.3 C 331.8 65.1, 332.9 61.4, 334.1 59.8 C 335.2 58.1, 336.4 58.1, 337.6 56.3 C 338.7 54.6, 339.9 50.8, 341.1 49.4 C 342.2 47.9, 343.4 48.1, 344.6 47.4 C 345.7 46.8, 346.9 46.7, 348.0 45.4 C 349.2 44.1, 350.4 40.6, 351.5 39.6 C 352.7 38.5, 353.9 39.5, 355.0 39.1 C 356.2 38.7, 357.3 38.3, 358.5 37.4 C 359.7 36.6, 361.4 34.6, 362.0 34.0" fill="none" stroke="url(#line)" stroke-width="2.2" stroke-linecap="round" stroke-linejoin="round"/>
    <circle cx="34.0" cy="189.8" r="2.5" fill="#1610bc"/>
    <circle cx="362.0" cy="34.0" r="2.8" fill="#9a97ed"/>
  </g>
  <text x="34" y="212" fill="#8b949e" font-family="-apple-system,BlinkMacSystemFont,Segoe UI,Inter,Arial,sans-serif" font-size="11">Jan 6</text>
  <text x="362" y="212" text-anchor="end" fill="#8b949e" font-family="-apple-system,BlinkMacSystemFont,Segoe UI,Inter,Arial,sans-serif" font-size="11">Jun 27</text>
</svg>
