<svg xmlns="http://www.w3.org/2000/svg" width="380" height="226" viewBox="0 0 380 226" role="img" aria-labelledby="title desc">
  <title id="title">Codex tokens over time</title>
  <desc id="desc">Line graph of cumulative Codex tokens from Jan 6 to Jun 26, ending at 3B.</desc>
  <defs>
    <linearGradient id="line" x1="0" x2="1" y1="0" y2="0">
      <stop offset="0" stop-color="#0ab80d"/>
      <stop offset=".55" stop-color="#8aef8c"/>
      <stop offset="1" stop-color="#33eb36"/>
    </linearGradient>
    <linearGradient id="area" x1="0" x2="0" y1="0" y2="1">
      <stop offset="0" stop-color="#33eb36" stop-opacity=".28"/>
      <stop offset="1" stop-color="#33eb36" stop-opacity="0"/>
    </linearGradient>
    <clipPath id="plot">
      <rect x="34" y="34" width="328" height="156"/>
    </clipPath>
  </defs>
  <rect width="380" height="226" rx="8" fill="#0d1117"/>
  <rect x=".5" y=".5" width="379" height="225" rx="8" fill="none" stroke="#30363d"/>
  <text x="34" y="22" fill="#e6edf3" font-family="-apple-system,BlinkMacSystemFont,Segoe UI,Inter,Arial,sans-serif" font-size="13" font-weight="650">tokens over time</text>
  <text x="362" y="22" text-anchor="end" fill="#8b949e" font-family="-apple-system,BlinkMacSystemFont,Segoe UI,Inter,Arial,sans-serif" font-size="11">3B</text>
  <g>
    <line x1="34" y1="34.0" x2="362" y2="34.0" stroke="#21262d" stroke-width="1"/>
    <line x1="34" y1="73.0" x2="362" y2="73.0" stroke="#21262d" stroke-width="1"/>
    <line x1="34" y1="112.0" x2="362" y2="112.0" stroke="#21262d" stroke-width="1"/>
    <line x1="34" y1="151.0" x2="362" y2="151.0" stroke="#21262d" stroke-width="1"/>
    <line x1="34" y1="190.0" x2="362" y2="190.0" stroke="#21262d" stroke-width="1"/>
    <line x1="34" y1="190" x2="362" y2="190" stroke="#30363d" stroke-width="1"/>
  </g>
  <g clip-path="url(#plot)">
    <path d="M 34.0 189.8 C 34.6 189.8, 36.4 190.0, 37.5 189.8 C 38.7 189.5, 39.9 188.6, 41.1 188.2 C 42.2 187.9, 43.4 187.8, 44.6 187.6 C 45.8 187.5, 46.9 187.4, 48.1 187.4 C 49.3 187.3, 50.5 187.3, 51.6 187.3 C 52.8 187.3, 54.0 187.3, 55.2 187.3 C 56.3 187.3, 57.5 187.3, 58.7 187.3 C 59.9 187.3, 61.0 187.4, 62.2 187.3 C 63.4 187.2, 64.6 186.8, 65.7 186.7 C 66.9 186.6, 68.1 186.6, 69.3 186.5 C 70.4 186.4, 71.6 186.1, 72.8 186.0 C 74.0 185.9, 75.1 186.0, 76.3 186.0 C 77.5 185.9, 78.7 185.8, 79.8 185.8 C 81.0 185.7, 82.2 185.8, 83.4 185.7 C 84.6 185.7, 85.7 185.6, 86.9 185.5 C 88.1 185.4, 89.3 185.2, 90.4 185.2 C 91.6 185.1, 92.8 185.1, 94.0 184.9 C 95.1 184.8, 96.3 184.3, 97.5 184.2 C 98.7 184.0, 99.8 184.1, 101.0 184.0 C 102.2 183.9, 103.4 183.9, 104.5 183.7 C 105.7 183.6, 106.9 183.2, 108.1 183.0 C 109.2 182.9, 110.4 182.8, 111.6 182.7 C 112.8 182.6, 113.9 182.7, 115.1 182.7 C 116.3 182.7, 117.5 182.7, 118.6 182.7 C 119.8 182.6, 121.0 182.7, 122.2 182.6 C 123.3 182.5, 124.5 182.2, 125.7 182.1 C 126.9 182.1, 128.1 182.1, 129.2 182.1 C 130.4 182.1, 131.6 182.0, 132.8 181.9 C 133.9 181.9, 135.1 181.9, 136.3 181.8 C 137.5 181.7, 138.6 181.5, 139.8 181.3 C 141.0 181.1, 142.2 180.7, 143.3 180.6 C 144.5 180.4, 145.7 180.4, 146.9 180.1 C 148.0 179.9, 149.2 179.8, 150.4 179.2 C 151.6 178.6, 152.7 177.0, 153.9 176.5 C 155.1 176.0, 156.3 176.4, 157.4 176.3 C 158.6 176.3, 159.8 176.5, 161.0 176.1 C 162.1 175.7, 163.3 174.2, 164.5 173.8 C 165.7 173.3, 166.8 173.6, 168.0 173.3 C 169.2 173.0, 170.4 172.3, 171.5 172.0 C 172.7 171.8, 173.9 172.1, 175.1 172.0 C 176.3 172.0, 177.4 171.9, 178.6 171.8 C 179.8 171.7, 181.0 171.6, 182.1 171.4 C 183.3 171.2, 184.5 170.9, 185.7 170.6 C 186.8 170.2, 188.0 169.5, 189.2 169.2 C 190.4 168.9, 191.5 169.4, 192.7 168.9 C 193.9 168.4, 195.1 167.5, 196.2 166.3 C 197.4 165.0, 198.6 162.4, 199.8 161.5 C 200.9 160.6, 202.1 161.1, 203.3 161.0 C 204.5 160.8, 205.6 160.7, 206.8 160.7 C 208.0 160.6, 209.2 161.2, 210.3 160.5 C 211.5 159.8, 212.7 157.5, 213.9 156.6 C 215.0 155.6, 216.2 155.4, 217.4 154.8 C 218.6 154.2, 219.7 153.5, 220.9 153.1 C 222.1 152.7, 223.3 152.9, 224.5 152.5 C 225.6 152.1, 226.8 151.0, 228.0 150.5 C 229.2 150.1, 230.3 150.0, 231.5 149.6 C 232.7 149.1, 233.9 148.2, 235.0 147.7 C 236.2 147.3, 237.4 148.0, 238.6 146.9 C 239.7 145.9, 240.9 142.4, 242.1 141.4 C 243.3 140.5, 244.4 141.4, 245.6 141.3 C 246.8 141.3, 248.0 141.3, 249.1 141.2 C 250.3 141.2, 251.5 141.0, 252.7 140.9 C 253.8 140.9, 255.0 141.0, 256.2 140.8 C 257.4 140.5, 258.5 140.3, 259.7 139.5 C 260.9 138.7, 262.1 141.1, 263.2 135.7 C 264.4 130.4, 265.6 114.8, 266.8 107.4 C 267.9 100.0, 269.1 94.1, 270.3 91.4 C 271.5 88.7, 272.7 91.3, 273.8 91.2 C 275.0 91.1, 276.2 90.9, 277.4 90.8 C 278.5 90.7, 279.7 90.8, 280.9 90.7 C 282.1 90.7, 283.2 90.5, 284.4 90.4 C 285.6 90.3, 286.8 90.2, 287.9 90.1 C 289.1 90.0, 290.3 89.9, 291.5 89.8 C 292.6 89.6, 293.8 91.3, 295.0 89.3 C 296.2 87.3, 297.3 80.1, 298.5 77.7 C 299.7 75.3, 300.9 75.3, 302.0 74.8 C 303.2 74.2, 304.4 74.8, 305.6 74.2 C 306.7 73.6, 307.9 71.7, 309.1 70.9 C 310.3 70.2, 311.4 70.2, 312.6 69.6 C 313.8 69.0, 315.0 67.9, 316.2 67.3 C 317.3 66.7, 318.5 66.1, 319.7 65.8 C 320.9 65.5, 322.0 65.6, 323.2 65.6 C 324.4 65.5, 325.6 65.7, 326.7 65.5 C 327.9 65.4, 329.1 64.9, 330.3 64.5 C 331.4 64.2, 332.6 64.8, 333.8 63.5 C 335.0 62.2, 336.1 58.5, 337.3 56.8 C 338.5 55.1, 339.7 55.0, 340.8 53.3 C 342.0 51.5, 343.2 47.6, 344.4 46.1 C 345.5 44.6, 346.7 44.8, 347.9 44.1 C 349.1 43.5, 350.2 43.4, 351.4 42.1 C 352.6 40.8, 353.8 37.2, 354.9 36.1 C 356.1 35.1, 357.3 36.0, 358.5 35.6 C 359.6 35.3, 361.4 34.3, 362.0 34.0 L 362.0 190.0 L 34.0 190.0 Z" fill="url(#area)"/>
    <path d="M 34.0 189.8 C 34.6 189.8, 36.4 190.0, 37.5 189.8 C 38.7 189.5, 39.9 188.6, 41.1 188.2 C 42.2 187.9, 43.4 187.8, 44.6 187.6 C 45.8 187.5, 46.9 187.4, 48.1 187.4 C 49.3 187.3, 50.5 187.3, 51.6 187.3 C 52.8 187.3, 54.0 187.3, 55.2 187.3 C 56.3 187.3, 57.5 187.3, 58.7 187.3 C 59.9 187.3, 61.0 187.4, 62.2 187.3 C 63.4 187.2, 64.6 186.8, 65.7 186.7 C 66.9 186.6, 68.1 186.6, 69.3 186.5 C 70.4 186.4, 71.6 186.1, 72.8 186.0 C 74.0 185.9, 75.1 186.0, 76.3 186.0 C 77.5 185.9, 78.7 185.8, 79.8 185.8 C 81.0 185.7, 82.2 185.8, 83.4 185.7 C 84.6 185.7, 85.7 185.6, 86.9 185.5 C 88.1 185.4, 89.3 185.2, 90.4 185.2 C 91.6 185.1, 92.8 185.1, 94.0 184.9 C 95.1 184.8, 96.3 184.3, 97.5 184.2 C 98.7 184.0, 99.8 184.1, 101.0 184.0 C 102.2 183.9, 103.4 183.9, 104.5 183.7 C 105.7 183.6, 106.9 183.2, 108.1 183.0 C 109.2 182.9, 110.4 182.8, 111.6 182.7 C 112.8 182.6, 113.9 182.7, 115.1 182.7 C 116.3 182.7, 117.5 182.7, 118.6 182.7 C 119.8 182.6, 121.0 182.7, 122.2 182.6 C 123.3 182.5, 124.5 182.2, 125.7 182.1 C 126.9 182.1, 128.1 182.1, 129.2 182.1 C 130.4 182.1, 131.6 182.0, 132.8 181.9 C 133.9 181.9, 135.1 181.9, 136.3 181.8 C 137.5 181.7, 138.6 181.5, 139.8 181.3 C 141.0 181.1, 142.2 180.7, 143.3 180.6 C 144.5 180.4, 145.7 180.4, 146.9 180.1 C 148.0 179.9, 149.2 179.8, 150.4 179.2 C 151.6 178.6, 152.7 177.0, 153.9 176.5 C 155.1 176.0, 156.3 176.4, 157.4 176.3 C 158.6 176.3, 159.8 176.5, 161.0 176.1 C 162.1 175.7, 163.3 174.2, 164.5 173.8 C 165.7 173.3, 166.8 173.6, 168.0 173.3 C 169.2 173.0, 170.4 172.3, 171.5 172.0 C 172.7 171.8, 173.9 172.1, 175.1 172.0 C 176.3 172.0, 177.4 171.9, 178.6 171.8 C 179.8 171.7, 181.0 171.6, 182.1 171.4 C 183.3 171.2, 184.5 170.9, 185.7 170.6 C 186.8 170.2, 188.0 169.5, 189.2 169.2 C 190.4 168.9, 191.5 169.4, 192.7 168.9 C 193.9 168.4, 195.1 167.5, 196.2 166.3 C 197.4 165.0, 198.6 162.4, 199.8 161.5 C 200.9 160.6, 202.1 161.1, 203.3 161.0 C 204.5 160.8, 205.6 160.7, 206.8 160.7 C 208.0 160.6, 209.2 161.2, 210.3 160.5 C 211.5 159.8, 212.7 157.5, 213.9 156.6 C 215.0 155.6, 216.2 155.4, 217.4 154.8 C 218.6 154.2, 219.7 153.5, 220.9 153.1 C 222.1 152.7, 223.3 152.9, 224.5 152.5 C 225.6 152.1, 226.8 151.0, 228.0 150.5 C 229.2 150.1, 230.3 150.0, 231.5 149.6 C 232.7 149.1, 233.9 148.2, 235.0 147.7 C 236.2 147.3, 237.4 148.0, 238.6 146.9 C 239.7 145.9, 240.9 142.4, 242.1 141.4 C 243.3 140.5, 244.4 141.4, 245.6 141.3 C 246.8 141.3, 248.0 141.3, 249.1 141.2 C 250.3 141.2, 251.5 141.0, 252.7 140.9 C 253.8 140.9, 255.0 141.0, 256.2 140.8 C 257.4 140.5, 258.5 140.3, 259.7 139.5 C 260.9 138.7, 262.1 141.1, 263.2 135.7 C 264.4 130.4, 265.6 114.8, 266.8 107.4 C 267.9 100.0, 269.1 94.1, 270.3 91.4 C 271.5 88.7, 272.7 91.3, 273.8 91.2 C 275.0 91.1, 276.2 90.9, 277.4 90.8 C 278.5 90.7, 279.7 90.8, 280.9 90.7 C 282.1 90.7, 283.2 90.5, 284.4 90.4 C 285.6 90.3, 286.8 90.2, 287.9 90.1 C 289.1 90.0, 290.3 89.9, 291.5 89.8 C 292.6 89.6, 293.8 91.3, 295.0 89.3 C 296.2 87.3, 297.3 80.1, 298.5 77.7 C 299.7 75.3, 300.9 75.3, 302.0 74.8 C 303.2 74.2, 304.4 74.8, 305.6 74.2 C 306.7 73.6, 307.9 71.7, 309.1 70.9 C 310.3 70.2, 311.4 70.2, 312.6 69.6 C 313.8 69.0, 315.0 67.9, 316.2 67.3 C 317.3 66.7, 318.5 66.1, 319.7 65.8 C 320.9 65.5, 322.0 65.6, 323.2 65.6 C 324.4 65.5, 325.6 65.7, 326.7 65.5 C 327.9 65.4, 329.1 64.9, 330.3 64.5 C 331.4 64.2, 332.6 64.8, 333.8 63.5 C 335.0 62.2, 336.1 58.5, 337.3 56.8 C 338.5 55.1, 339.7 55.0, 340.8 53.3 C 342.0 51.5, 343.2 47.6, 344.4 46.1 C 345.5 44.6, 346.7 44.8, 347.9 44.1 C 349.1 43.5, 350.2 43.4, 351.4 42.1 C 352.6 40.8, 353.8 37.2, 354.9 36.1 C 356.1 35.1, 357.3 36.0, 358.5 35.6 C 359.6 35.3, 361.4 34.3, 362.0 34.0" fill="none" stroke="url(#line)" stroke-width="2.2" stroke-linecap="round" stroke-linejoin="round"/>
    <circle cx="34.0" cy="189.8" r="2.5" fill="#0ab80d"/>
    <circle cx="362.0" cy="34.0" r="2.8" fill="#8aef8c"/>
  </g>
  <text x="34" y="212" fill="#8b949e" font-family="-apple-system,BlinkMacSystemFont,Segoe UI,Inter,Arial,sans-serif" font-size="11">Jan 6</text>
  <text x="362" y="212" text-anchor="end" fill="#8b949e" font-family="-apple-system,BlinkMacSystemFont,Segoe UI,Inter,Arial,sans-serif" font-size="11">Jun 26</text>
</svg>
