<svg xmlns="http://www.w3.org/2000/svg" width="380" height="226" viewBox="0 0 380 226" role="img" aria-labelledby="title desc">
  <title id="title">Codex tokens over time</title>
  <desc id="desc">Line graph of cumulative Codex tokens from Jan 6 to Jul 28, ending at 9.37B.</desc>
  <defs>
    <linearGradient id="line" x1="0" x2="1" y1="0" y2="0">
      <stop offset="0" stop-color="#0737a6"/>
      <stop offset=".55" stop-color="#759af0"/>
      <stop offset="1" stop-color="#1a5aef"/>
    </linearGradient>
    <linearGradient id="area" x1="0" x2="0" y1="0" y2="1">
      <stop offset="0" stop-color="#1a5aef" stop-opacity=".28"/>
      <stop offset="1" stop-color="#1a5aef" stop-opacity="0"/>
    </linearGradient>
    <clipPath id="plot">
      <rect x="34" y="34" width="328" height="156"/>
    </clipPath>
  </defs>
  <rect width="380" height="226" rx="8" fill="#0d1117"/>
  <rect x=".5" y=".5" width="379" height="225" rx="8" fill="none" stroke="#30363d"/>
  <text x="34" y="22" fill="#e6edf3" font-family="-apple-system,BlinkMacSystemFont,Segoe UI,Inter,Arial,sans-serif" font-size="13" font-weight="650">tokens over time</text>
  <text x="362" y="22" text-anchor="end" fill="#8b949e" font-family="-apple-system,BlinkMacSystemFont,Segoe UI,Inter,Arial,sans-serif" font-size="11">9.37B</text>
  <g>
    <line x1="34" y1="34.0" x2="362" y2="34.0" stroke="#21262d" stroke-width="1"/>
    <line x1="34" y1="73.0" x2="362" y2="73.0" stroke="#21262d" stroke-width="1"/>
    <line x1="34" y1="112.0" x2="362" y2="112.0" stroke="#21262d" stroke-width="1"/>
    <line x1="34" y1="151.0" x2="362" y2="151.0" stroke="#21262d" stroke-width="1"/>
    <line x1="34" y1="190.0" x2="362" y2="190.0" stroke="#21262d" stroke-width="1"/>
    <line x1="34" y1="190" x2="362" y2="190" stroke="#30363d" stroke-width="1"/>
  </g>
  <g clip-path="url(#plot)">
    <path d="M 34.0 189.9 C 34.4 189.9, 35.8 190.0, 36.7 189.9 C 37.6 189.8, 38.5 189.5, 39.4 189.4 C 40.3 189.3, 41.2 189.3, 42.1 189.2 C 43.0 189.2, 43.9 189.2, 44.8 189.2 C 45.7 189.1, 46.5 189.2, 47.4 189.1 C 48.3 189.1, 49.2 189.1, 50.1 189.1 C 51.0 189.1, 51.9 189.1, 52.8 189.1 C 53.7 189.1, 54.6 189.2, 55.5 189.1 C 56.4 189.1, 57.3 189.0, 58.2 188.9 C 59.1 188.9, 60.0 188.9, 60.9 188.9 C 61.8 188.8, 62.7 188.8, 63.6 188.7 C 64.5 188.7, 65.4 188.7, 66.3 188.7 C 67.2 188.7, 68.1 188.7, 69.0 188.6 C 69.8 188.6, 70.7 188.6, 71.6 188.6 C 72.5 188.6, 73.4 188.6, 74.3 188.6 C 75.2 188.5, 76.1 188.5, 77.0 188.4 C 77.9 188.4, 78.8 188.4, 79.7 188.4 C 80.6 188.3, 81.5 188.2, 82.4 188.1 C 83.3 188.1, 84.2 188.1, 85.1 188.1 C 86.0 188.1, 86.9 188.0, 87.8 188.0 C 88.7 187.9, 89.6 187.8, 90.5 187.8 C 91.4 187.7, 92.3 187.7, 93.1 187.7 C 94.0 187.6, 94.9 187.7, 95.8 187.7 C 96.7 187.7, 97.6 187.7, 98.5 187.6 C 99.4 187.6, 100.3 187.7, 101.2 187.6 C 102.1 187.6, 103.0 187.5, 103.9 187.5 C 104.8 187.5, 105.7 187.5, 106.6 187.5 C 107.5 187.5, 108.4 187.4, 109.3 187.4 C 110.2 187.4, 111.1 187.4, 112.0 187.4 C 112.9 187.3, 113.8 187.3, 114.7 187.2 C 115.6 187.1, 116.4 187.0, 117.3 187.0 C 118.2 186.9, 119.1 186.9, 120.0 186.8 C 120.9 186.8, 121.8 186.7, 122.7 186.6 C 123.6 186.4, 124.5 185.8, 125.4 185.7 C 126.3 185.5, 127.2 185.6, 128.1 185.6 C 129.0 185.6, 129.9 185.7, 130.8 185.6 C 131.7 185.4, 132.6 185.0, 133.5 184.8 C 134.4 184.7, 135.3 184.8, 136.2 184.7 C 137.1 184.6, 138.0 184.3, 138.9 184.3 C 139.7 184.2, 140.6 184.3, 141.5 184.2 C 142.4 184.2, 143.3 184.2, 144.2 184.2 C 145.1 184.1, 146.0 184.1, 146.9 184.0 C 147.8 184.0, 148.7 183.9, 149.6 183.8 C 150.5 183.7, 151.4 183.4, 152.3 183.3 C 153.2 183.3, 154.1 183.4, 155.0 183.3 C 155.9 183.1, 156.8 182.8, 157.7 182.4 C 158.6 182.0, 159.5 181.2, 160.4 180.9 C 161.3 180.6, 162.2 180.8, 163.0 180.7 C 163.9 180.7, 164.8 180.6, 165.7 180.6 C 166.6 180.6, 167.5 180.8, 168.4 180.6 C 169.3 180.3, 170.2 179.6, 171.1 179.3 C 172.0 179.0, 172.9 178.9, 173.8 178.7 C 174.7 178.5, 175.6 178.3, 176.5 178.2 C 177.4 178.0, 178.3 178.1, 179.2 178.0 C 180.1 177.9, 181.0 177.5, 181.9 177.4 C 182.8 177.2, 183.7 177.2, 184.6 177.1 C 185.5 176.9, 186.3 176.6, 187.2 176.5 C 188.1 176.3, 189.0 176.5, 189.9 176.2 C 190.8 175.9, 191.7 174.8, 192.6 174.5 C 193.5 174.2, 194.4 174.4, 195.3 174.4 C 196.2 174.4, 197.1 174.4, 198.0 174.4 C 198.9 174.4, 199.8 174.3, 200.7 174.3 C 201.6 174.3, 202.5 174.3, 203.4 174.2 C 204.3 174.2, 205.2 174.1, 206.1 173.8 C 207.0 173.6, 207.9 174.3, 208.8 172.6 C 209.7 170.9, 210.5 165.9, 211.4 163.6 C 212.3 161.2, 213.2 159.3, 214.1 158.4 C 215.0 157.6, 215.9 158.4, 216.8 158.4 C 217.7 158.3, 218.6 158.3, 219.5 158.2 C 220.4 158.2, 221.3 158.2, 222.2 158.2 C 223.1 158.2, 224.0 158.1, 224.9 158.1 C 225.8 158.1, 226.7 158.1, 227.6 158.0 C 228.5 158.0, 229.4 158.0, 230.3 157.9 C 231.2 157.9, 232.1 158.4, 233.0 157.8 C 233.8 157.1, 234.7 154.8, 235.6 154.0 C 236.5 153.3, 237.4 153.3, 238.3 153.1 C 239.2 152.9, 240.1 153.1, 241.0 152.9 C 241.9 152.7, 242.8 152.1, 243.7 151.9 C 244.6 151.6, 245.5 151.6, 246.4 151.4 C 247.3 151.2, 248.2 150.9, 249.1 150.7 C 250.0 150.5, 250.9 150.3, 251.8 150.2 C 252.7 150.2, 253.6 150.2, 254.5 150.2 C 255.4 150.1, 256.3 150.2, 257.1 150.2 C 258.0 150.1, 258.9 149.9, 259.8 149.8 C 260.7 149.7, 261.6 149.9, 262.5 149.5 C 263.4 149.1, 264.3 147.9, 265.2 147.3 C 266.1 146.8, 267.0 146.8, 267.9 146.2 C 268.8 145.6, 269.7 144.4, 270.6 143.9 C 271.5 143.4, 272.4 143.5, 273.3 143.3 C 274.2 143.1, 275.1 143.1, 276.0 142.7 C 276.9 142.2, 277.8 141.1, 278.7 140.7 C 279.6 140.4, 280.4 140.7, 281.3 140.6 C 282.2 140.5, 283.1 140.3, 284.0 140.0 C 284.9 139.8, 285.8 139.3, 286.7 138.9 C 287.6 138.6, 288.5 138.3, 289.4 137.9 C 290.3 137.6, 291.2 137.4, 292.1 136.9 C 293.0 136.4, 293.9 135.4, 294.8 135.1 C 295.7 134.8, 296.6 135.3, 297.5 135.0 C 298.4 134.6, 299.3 133.5, 300.2 133.3 C 301.1 133.0, 302.0 133.3, 302.9 133.2 C 303.7 133.1, 304.6 132.8, 305.5 132.5 C 306.4 132.3, 307.3 132.2, 308.2 131.8 C 309.1 131.4, 310.0 130.7, 310.9 130.3 C 311.8 129.9, 312.7 129.7, 313.6 129.4 C 314.5 129.1, 315.4 129.3, 316.3 128.7 C 317.2 128.1, 318.1 127.0, 319.0 125.7 C 319.9 124.3, 320.8 121.6, 321.7 120.6 C 322.6 119.6, 323.5 120.3, 324.4 119.8 C 325.3 119.3, 326.2 118.4, 327.0 117.6 C 327.9 116.8, 328.8 115.7, 329.7 114.8 C 330.6 113.9, 331.5 113.0, 332.4 112.0 C 333.3 111.1, 334.2 110.9, 335.1 109.3 C 336.0 107.7, 336.9 105.0, 337.8 102.6 C 338.7 100.2, 339.6 102.9, 340.5 94.9 C 341.4 86.9, 342.3 64.1, 343.2 54.3 C 344.1 44.6, 345.0 39.6, 345.9 36.4 C 346.8 33.3, 347.7 35.7, 348.6 35.6 C 349.5 35.5, 350.3 35.6, 351.2 35.6 C 352.1 35.6, 353.0 35.7, 353.9 35.6 C 354.8 35.5, 355.7 35.4, 356.6 35.2 C 357.5 34.9, 358.4 34.4, 359.3 34.2 C 360.2 34.0, 361.6 34.0, 362.0 34.0 L 362.0 190.0 L 34.0 190.0 Z" fill="url(#area)"/>
    <path d="M 34.0 189.9 C 34.4 189.9, 35.8 190.0, 36.7 189.9 C 37.6 189.8, 38.5 189.5, 39.4 189.4 C 40.3 189.3, 41.2 189.3, 42.1 189.2 C 43.0 189.2, 43.9 189.2, 44.8 189.2 C 45.7 189.1, 46.5 189.2, 47.4 189.1 C 48.3 189.1, 49.2 189.1, 50.1 189.1 C 51.0 189.1, 51.9 189.1, 52.8 189.1 C 53.7 189.1, 54.6 189.2, 55.5 189.1 C 56.4 189.1, 57.3 189.0, 58.2 188.9 C 59.1 188.9, 60.0 188.9, 60.9 188.9 C 61.8 188.8, 62.7 188.8, 63.6 188.7 C 64.5 188.7, 65.4 188.7, 66.3 188.7 C 67.2 188.7, 68.1 188.7, 69.0 188.6 C 69.8 188.6, 70.7 188.6, 71.6 188.6 C 72.5 188.6, 73.4 188.6, 74.3 188.6 C 75.2 188.5, 76.1 188.5, 77.0 188.4 C 77.9 188.4, 78.8 188.4, 79.7 188.4 C 80.6 188.3, 81.5 188.2, 82.4 188.1 C 83.3 188.1, 84.2 188.1, 85.1 188.1 C 86.0 188.1, 86.9 188.0, 87.8 188.0 C 88.7 187.9, 89.6 187.8, 90.5 187.8 C 91.4 187.7, 92.3 187.7, 93.1 187.7 C 94.0 187.6, 94.9 187.7, 95.8 187.7 C 96.7 187.7, 97.6 187.7, 98.5 187.6 C 99.4 187.6, 100.3 187.7, 101.2 187.6 C 102.1 187.6, 103.0 187.5, 103.9 187.5 C 104.8 187.5, 105.7 187.5, 106.6 187.5 C 107.5 187.5, 108.4 187.4, 109.3 187.4 C 110.2 187.4, 111.1 187.4, 112.0 187.4 C 112.9 187.3, 113.8 187.3, 114.7 187.2 C 115.6 187.1, 116.4 187.0, 117.3 187.0 C 118.2 186.9, 119.1 186.9, 120.0 186.8 C 120.9 186.8, 121.8 186.7, 122.7 186.6 C 123.6 186.4, 124.5 185.8, 125.4 185.7 C 126.3 185.5, 127.2 185.6, 128.1 185.6 C 129.0 185.6, 129.9 185.7, 130.8 185.6 C 131.7 185.4, 132.6 185.0, 133.5 184.8 C 134.4 184.7, 135.3 184.8, 136.2 184.7 C 137.1 184.6, 138.0 184.3, 138.9 184.3 C 139.7 184.2, 140.6 184.3, 141.5 184.2 C 142.4 184.2, 143.3 184.2, 144.2 184.2 C 145.1 184.1, 146.0 184.1, 146.9 184.0 C 147.8 184.0, 148.7 183.9, 149.6 183.8 C 150.5 183.7, 151.4 183.4, 152.3 183.3 C 153.2 183.3, 154.1 183.4, 155.0 183.3 C 155.9 183.1, 156.8 182.8, 157.7 182.4 C 158.6 182.0, 159.5 181.2, 160.4 180.9 C 161.3 180.6, 162.2 180.8, 163.0 180.7 C 163.9 180.7, 164.8 180.6, 165.7 180.6 C 166.6 180.6, 167.5 180.8, 168.4 180.6 C 169.3 180.3, 170.2 179.6, 171.1 179.3 C 172.0 179.0, 172.9 178.9, 173.8 178.7 C 174.7 178.5, 175.6 178.3, 176.5 178.2 C 177.4 178.0, 178.3 178.1, 179.2 178.0 C 180.1 177.9, 181.0 177.5, 181.9 177.4 C 182.8 177.2, 183.7 177.2, 184.6 177.1 C 185.5 176.9, 186.3 176.6, 187.2 176.5 C 188.1 176.3, 189.0 176.5, 189.9 176.2 C 190.8 175.9, 191.7 174.8, 192.6 174.5 C 193.5 174.2, 194.4 174.4, 195.3 174.4 C 196.2 174.4, 197.1 174.4, 198.0 174.4 C 198.9 174.4, 199.8 174.3, 200.7 174.3 C 201.6 174.3, 202.5 174.3, 203.4 174.2 C 204.3 174.2, 205.2 174.1, 206.1 173.8 C 207.0 173.6, 207.9 174.3, 208.8 172.6 C 209.7 170.9, 210.5 165.9, 211.4 163.6 C 212.3 161.2, 213.2 159.3, 214.1 158.4 C 215.0 157.6, 215.9 158.4, 216.8 158.4 C 217.7 158.3, 218.6 158.3, 219.5 158.2 C 220.4 158.2, 221.3 158.2, 222.2 158.2 C 223.1 158.2, 224.0 158.1, 224.9 158.1 C 225.8 158.1, 226.7 158.1, 227.6 158.0 C 228.5 158.0, 229.4 158.0, 230.3 157.9 C 231.2 157.9, 232.1 158.4, 233.0 157.8 C 233.8 157.1, 234.7 154.8, 235.6 154.0 C 236.5 153.3, 237.4 153.3, 238.3 153.1 C 239.2 152.9, 240.1 153.1, 241.0 152.9 C 241.9 152.7, 242.8 152.1, 243.7 151.9 C 244.6 151.6, 245.5 151.6, 246.4 151.4 C 247.3 151.2, 248.2 150.9, 249.1 150.7 C 250.0 150.5, 250.9 150.3, 251.8 150.2 C 252.7 150.2, 253.6 150.2, 254.5 150.2 C 255.4 150.1, 256.3 150.2, 257.1 150.2 C 258.0 150.1, 258.9 149.9, 259.8 149.8 C 260.7 149.7, 261.6 149.9, 262.5 149.5 C 263.4 149.1, 264.3 147.9, 265.2 147.3 C 266.1 146.8, 267.0 146.8, 267.9 146.2 C 268.8 145.6, 269.7 144.4, 270.6 143.9 C 271.5 143.4, 272.4 143.5, 273.3 143.3 C 274.2 143.1, 275.1 143.1, 276.0 142.7 C 276.9 142.2, 277.8 141.1, 278.7 140.7 C 279.6 140.4, 280.4 140.7, 281.3 140.6 C 282.2 140.5, 283.1 140.3, 284.0 140.0 C 284.9 139.8, 285.8 139.3, 286.7 138.9 C 287.6 138.6, 288.5 138.3, 289.4 137.9 C 290.3 137.6, 291.2 137.4, 292.1 136.9 C 293.0 136.4, 293.9 135.4, 294.8 135.1 C 295.7 134.8, 296.6 135.3, 297.5 135.0 C 298.4 134.6, 299.3 133.5, 300.2 133.3 C 301.1 133.0, 302.0 133.3, 302.9 133.2 C 303.7 133.1, 304.6 132.8, 305.5 132.5 C 306.4 132.3, 307.3 132.2, 308.2 131.8 C 309.1 131.4, 310.0 130.7, 310.9 130.3 C 311.8 129.9, 312.7 129.7, 313.6 129.4 C 314.5 129.1, 315.4 129.3, 316.3 128.7 C 317.2 128.1, 318.1 127.0, 319.0 125.7 C 319.9 124.3, 320.8 121.6, 321.7 120.6 C 322.6 119.6, 323.5 120.3, 324.4 119.8 C 325.3 119.3, 326.2 118.4, 327.0 117.6 C 327.9 116.8, 328.8 115.7, 329.7 114.8 C 330.6 113.9, 331.5 113.0, 332.4 112.0 C 333.3 111.1, 334.2 110.9, 335.1 109.3 C 336.0 107.7, 336.9 105.0, 337.8 102.6 C 338.7 100.2, 339.6 102.9, 340.5 94.9 C 341.4 86.9, 342.3 64.1, 343.2 54.3 C 344.1 44.6, 345.0 39.6, 345.9 36.4 C 346.8 33.3, 347.7 35.7, 348.6 35.6 C 349.5 35.5, 350.3 35.6, 351.2 35.6 C 352.1 35.6, 353.0 35.7, 353.9 35.6 C 354.8 35.5, 355.7 35.4, 356.6 35.2 C 357.5 34.9, 358.4 34.4, 359.3 34.2 C 360.2 34.0, 361.6 34.0, 362.0 34.0" fill="none" stroke="url(#line)" stroke-width="2.2" stroke-linecap="round" stroke-linejoin="round"/>
    <circle cx="34.0" cy="189.9" r="2.5" fill="#0737a6"/>
    <circle cx="362.0" cy="34.0" r="2.8" fill="#759af0"/>
  </g>
  <text x="34" y="212" fill="#8b949e" font-family="-apple-system,BlinkMacSystemFont,Segoe UI,Inter,Arial,sans-serif" font-size="11">Jan 6</text>
  <text x="362" y="212" text-anchor="end" fill="#8b949e" font-family="-apple-system,BlinkMacSystemFont,Segoe UI,Inter,Arial,sans-serif" font-size="11">Jul 28</text>
</svg>
